<svg width="18" height="21" viewBox="0 0 18 21" fill="none" xmlns="http://www.w3.org/2000/svg">
<g clip-path="url(#clip0)">
<path d="M11.0357 13.9437C10.724 14.2294 10.4221 14.5362 10.1006 14.8007C8.67856 15.9644 7.08116 16.1231 5.43506 15.573C4.21753 15.1709 3.49675 14.1871 3.21428 12.8646C2.89285 11.3201 3.03896 9.84953 3.92532 8.53769C4.49999 7.68076 5.28896 7.14122 6.1948 6.7921C7.22727 6.39008 8.31818 6.28429 9.3896 6.14676C9.74025 6.10444 10.1006 6.06212 10.5195 5.99865C10.539 5.24751 10.6461 4.49638 10.2857 3.79814C9.95454 3.1528 9.11688 2.846 8.30844 3.05759C7.57792 3.24802 7.06168 3.70293 6.86688 4.52812C6.73051 5.08882 6.61363 5.17346 6.06818 5.12056C5.38636 5.05708 4.71428 4.98303 4.0422 4.88781C3.56493 4.81376 3.43831 4.60217 3.53571 4.08378C3.8961 2.2324 4.96753 1.04751 6.59415 0.45507C8.17207 -0.116215 9.77921 -0.147953 11.3766 0.370435C13.1883 0.962878 14.1331 2.36993 14.1623 4.51754C14.1818 6.33719 14.1916 8.14625 14.1526 9.9659C14.1331 11.0344 14.3766 11.976 14.9903 12.8117C15.3993 13.3724 15.3701 13.5417 14.8734 13.9966C14.3474 14.4939 13.8214 14.9911 13.2857 15.4777C12.8961 15.8374 12.6623 15.848 12.3117 15.4672C11.8734 15.0017 11.474 14.4727 11.0357 13.9437ZM10.5292 8.3261C9.8474 8.2732 9.2435 8.34726 8.64934 8.53769C7.28571 8.97144 6.68181 10.0082 6.87662 11.5422C7.03246 12.6848 7.96753 13.2878 8.96103 12.8646C9.61363 12.5896 9.9935 12.0289 10.2467 11.3624C10.6169 10.3891 10.539 9.39462 10.5292 8.3261Z" fill="white"/>
<path d="M8.95131 21.0001C5.79547 21.0001 3.1656 19.646 0.905858 17.3291C0.662352 17.0752 0.428585 16.8001 0.204559 16.5251C0.0779361 16.377 -0.107129 16.1865 0.0876763 15.9961C0.146118 15.9326 0.409105 16.0278 0.535728 16.1231C2.03573 17.2656 3.67209 18.112 5.44482 18.6304C8.87339 19.6248 12.1948 19.2545 15.3994 17.6042C15.5942 17.509 15.7695 17.382 15.974 17.3185C16.0909 17.2868 16.3052 17.3079 16.3539 17.3926C16.4221 17.509 16.4318 17.7417 16.3734 17.8687C16.3052 18.0379 16.1396 18.1649 16.0033 18.2812C14.3572 19.7412 12.4773 20.6299 10.3637 20.9261C10.1688 20.9578 9.97404 21.0001 9.78897 21.0107C9.50651 21.0107 9.22404 21.0001 8.95131 21.0001Z" fill="white"/>
<path d="M16.4805 19.3711C16.5877 19.0219 16.7143 18.6834 16.8117 18.3343C16.9091 17.9957 17.0065 17.6572 17.0649 17.3187C17.1429 16.8426 17.0552 16.6733 16.6169 16.6522C16.0714 16.6099 15.5162 16.6733 14.9708 16.6945C14.8344 16.6945 14.7078 16.6945 14.5714 16.6945C14.552 16.6522 14.5325 16.5993 14.5227 16.557C14.6494 16.4406 14.7565 16.2925 14.8929 16.2184C15.75 15.7212 16.6559 15.6789 17.5909 15.8693C17.8344 15.9222 18.0097 16.0491 18.0097 16.3559C18 17.4985 17.6688 18.5036 16.9091 19.3076C16.8312 19.3922 16.7046 19.424 16.5974 19.4874C16.5584 19.4451 16.5195 19.4028 16.4805 19.3711Z" fill="white"/>
</g>
<defs>
<clipPath id="clip0">
<rect width="18" height="21" fill="white"/>
</clipPath>
</defs>
</svg>
