<svg width="53" height="53" viewBox="0 0 53 53" fill="none" xmlns="http://www.w3.org/2000/svg">
<path fill-rule="evenodd" clip-rule="evenodd" d="M26.5 53C41.1355 53 53 41.1355 53 26.5C53 11.8645 41.1355 0 26.5 0C11.8645 0 0 11.8645 0 26.5C0 41.1355 11.8645 53 26.5 53ZM17.5348 18.7715C17.4552 18.3194 17.3757 17.8935 17.2961 17.4677C17.2564 17.2547 17.2166 17.0418 17.1768 16.8256C17.0873 16.2948 16.7591 16 16.2221 16C15.4762 16 14.7006 16 13.9547 16.0295C13.3878 16.0295 13 16.4128 13 16.914C13 17.4152 13.3878 17.7985 13.9845 17.828C14.3425 17.8575 14.6707 17.8575 15.0287 17.828C15.3867 17.7985 15.5061 17.9459 15.5359 18.2998C15.7597 19.5528 15.9909 20.8059 16.2221 22.0589C16.4533 23.312 16.6845 24.5651 16.9083 25.8182C17.0434 26.486 17.1536 27.1414 17.263 27.7925C17.3227 28.1475 17.3821 28.5013 17.4453 28.855C15.3867 29.3268 14.253 30.5651 14.4022 32.1572C14.432 32.9238 14.7006 33.602 15.2077 34.1916C16.0729 35.1941 17.2066 35.4005 18.4597 35.312C18.042 37.3464 18.3702 38.4963 19.5934 39.3219C20.6972 40.0885 22.0994 40.1474 23.2033 39.4103C24.695 38.4079 25.0232 36.9926 24.4564 35.3415H29.2298C28.663 36.9631 28.9315 38.3194 30.3337 39.3219C31.4674 40.1474 32.7204 40.1769 33.884 39.4398C35.4055 38.4668 35.7337 37.0221 35.1668 35.312C35.4686 35.312 35.7635 35.3154 36.0551 35.3187C36.6285 35.3252 37.1889 35.3316 37.7624 35.312C38.3293 35.2826 38.7171 34.8993 38.7171 34.398C38.7171 33.8968 38.3293 33.5135 37.7923 33.484H17.5945C16.9381 33.4545 16.4011 32.9533 16.3116 32.3342C16.1923 31.715 16.5503 31.0958 17.147 30.86C17.4155 30.7715 17.7138 30.742 18.0122 30.742H36.0619C36.8376 30.742 37.0762 30.5946 37.2851 29.828C37.7326 28.2359 38.1727 26.6363 38.6127 25.0368C39.0528 23.4373 39.4928 21.8378 39.9403 20.2457C40.2088 19.2138 39.8508 18.7715 38.747 18.7715H17.5348ZM17.8928 20.629H37.8818C37.4939 22.0147 37.1135 23.3931 36.7332 24.7714C36.3528 26.1498 35.9724 27.5282 35.5845 28.914H34.8983C33.2475 28.914 31.5967 28.9107 29.9459 28.9075C26.6442 28.9009 23.3425 28.8943 20.0409 28.914C19.5039 28.914 19.295 28.7961 19.2055 28.2359C18.9146 26.4005 18.5734 24.5651 18.2322 22.7297C18.1184 22.1179 18.0047 21.5061 17.8928 20.8943V20.629ZM21.3834 35.371C22.1591 35.371 22.7856 35.9902 22.7856 36.7568C22.7856 37.5233 22.1591 38.113 21.3834 38.1425C20.6077 38.1425 19.9812 37.5233 19.9812 36.7568C19.9812 35.9902 20.6077 35.371 21.3834 35.371ZM32.0641 35.371C32.8398 35.3415 33.4961 35.9607 33.4961 36.7273C33.526 37.4939 32.8994 38.113 32.1238 38.1425C31.3481 38.172 30.6917 37.5528 30.6917 36.7862C30.6619 36.0197 31.2884 35.371 32.0641 35.371Z" fill="#CA1A1A"/>
</svg>
