<svg width="24" height="24" viewBox="0 0 24 24" fill="none" xmlns="http://www.w3.org/2000/svg">
<g clip-path="url(#clip0)">
<path d="M22.3165 11.7581C22.3035 11.5232 22.2774 11.2883 22.2643 11.0403C22.2252 10.5183 22.3948 10.1268 22.956 10.0485C23.4911 9.97016 23.8304 10.2442 23.9087 10.8576C24.1827 12.9848 23.8565 15.0468 22.9168 16.9522C20.6721 21.5591 16.9397 23.9734 11.8108 24.0126C5.83365 24.0517 0.756977 19.3013 0.078347 13.3633C-0.613333 7.30784 3.39319 1.76135 9.09629 0.36494C12.2937 -0.418094 15.3475 0.0517261 18.1925 1.73525C18.9495 2.19202 19.1452 2.63574 18.8581 3.11861C18.5449 3.62758 18.0881 3.64063 17.3181 3.20996C13.7814 1.17407 10.1795 1.10882 6.69499 3.20996C-0.0913107 7.30784 0.104448 16.8609 6.69499 20.8021C12.4372 24.2475 19.6412 21.546 21.7684 15.2034C22.1338 14.1072 22.2252 12.9196 22.447 11.7711C22.3948 11.7711 22.3557 11.7581 22.3165 11.7581Z" fill="#CA1A1A"/>
<path d="M10.832 15.7259C12.3981 14.1468 13.9119 12.6199 15.4258 11.093C17.1093 9.39642 18.8059 7.71289 20.4894 6.02937C20.9201 5.58565 21.416 5.44209 21.9511 5.75531C22.6428 6.14682 22.7211 6.95596 22.0946 7.58239C20.633 9.07015 19.1583 10.5449 17.6835 12.0196C15.7782 13.925 13.8728 15.8303 11.9674 17.7357C10.9886 18.7145 10.584 18.7145 9.59219 17.7227C8.24798 16.3654 6.89072 15.0212 5.53346 13.664C4.94618 13.0767 4.86788 12.4894 5.2855 11.9935C5.76837 11.4062 6.40785 11.3932 7.03427 12.0065C8.11747 13.0636 9.18762 14.1599 10.2708 15.23C10.4405 15.3475 10.5971 15.5041 10.832 15.7259Z" fill="#CA1A1A"/>
</g>
<defs>
<clipPath id="clip0">
<rect width="24" height="24" fill="white"/>
</clipPath>
</defs>
</svg>
