<svg width="11" height="29" viewBox="0 0 11 22" fill="none" xmlns="http://www.w3.org/2000/svg">
<path d="M3.25628 12.1773C2.16095 12.1773 1.14204 12.1773 0.148604 12.1773C-0.00423208 11.6513 -0.0551776 9.62614 0.0721862 8.25849C1.0911 8.17959 2.13548 8.2848 3.23081 8.20589C3.23081 7.96918 3.25628 7.78508 3.25628 7.57467C3.25628 6.62784 3.25628 5.7073 3.25628 4.76047C3.25628 3.62953 3.58743 2.6827 4.24972 1.76216C5.14126 0.499718 6.38943 0.131505 7.79043 0C8.04516 0.0263009 8.32536 0.0263009 8.58009 0.0263009C9.36974 0.0526019 10.1594 0.105204 11 0.157806C11 1.34135 11 2.44599 11 3.60323C10.4141 3.76103 9.80278 3.62953 9.21691 3.68213C8.88576 3.70843 8.52914 3.73473 8.22347 3.83994C7.45929 4.07665 7.23003 4.39226 7.23003 5.20759C7.23003 6.18072 7.23003 7.18016 7.23003 8.23219C7.84138 8.23219 8.40178 8.25849 8.93671 8.25849C9.49711 8.25849 10.0575 8.25849 10.6689 8.25849C10.4905 9.57354 10.4141 10.8886 10.1339 12.2036C9.16596 12.2036 8.24894 12.2036 7.28098 12.2036C7.17909 13.0453 7.2555 13.8606 7.23003 14.6496C7.20456 15.465 7.23003 16.2803 7.23003 17.0693C7.23003 17.8583 7.23003 18.6474 7.23003 19.4101C7.23003 20.2254 7.23003 21.0144 7.23003 21.8561C5.90545 21.8561 4.63181 21.8561 3.3327 21.8561C3.20534 21.2512 3.28175 20.6199 3.28175 19.9887C3.25628 19.3312 3.28175 18.6737 3.28175 18.0161C3.28175 17.3849 3.28175 16.7537 3.28175 16.1225C3.28175 15.465 3.28175 14.8074 3.28175 14.1499C3.25628 13.5187 3.25628 12.8875 3.25628 12.1773Z" fill="#A8A8A8"/>
</svg>
