<svg width="22" height="21" viewBox="0 0 22 21" fill="none" xmlns="http://www.w3.org/2000/svg">
<path d="M16.9101 1.75082C12.1301 1.75082 7.49025 1.75082 2.72298 1.75082C3.75546 2.89499 4.69872 3.95114 5.65472 5.00729C6.3303 5.76168 7.00588 6.5035 7.70695 7.24532C8.03836 7.5848 8.15308 7.962 8.15308 8.42721C8.12759 10.5898 8.15308 12.7398 8.14033 14.9024C8.14033 15.3173 8.24231 15.6191 8.58647 15.858C8.90514 16.0843 9.21106 16.3609 9.47874 16.6627C9.75917 16.9644 9.88664 17.3416 9.54247 17.6685C9.23655 17.9703 8.8669 18.1086 8.459 17.7817C7.96188 17.3919 7.42652 17.0399 6.98038 16.5872C6.76369 16.3609 6.62347 15.9711 6.61073 15.6442C6.58523 13.4691 6.61073 11.2813 6.57249 9.10616C6.57249 8.76668 6.43227 8.36434 6.21558 8.11287C4.34181 5.93771 2.41705 3.77511 0.517793 1.61252C0.390325 1.47421 0.250111 1.33591 0.160884 1.17245C-0.196024 0.581512 0.0589106 0.0911559 0.747234 0.0157165C0.912941 -0.00942992 1.0914 0.00314331 1.2571 0.00314331C6.96764 0.00314331 12.6909 0.00314331 18.4014 0.00314331C18.8731 0.00314331 19.3829 -0.0597228 19.5996 0.480926C19.8036 0.983855 19.4977 1.36105 19.179 1.7131C17.2925 3.83798 15.406 5.96285 13.5449 8.11287C13.341 8.35177 13.2135 8.74154 13.2135 9.06844C13.188 12.677 13.2135 16.2729 13.188 19.8814C13.188 20.2083 13.0733 20.6232 12.8439 20.8118C12.6399 20.9879 12.1173 21.0633 11.9261 20.9376C11.6712 20.7615 11.48 20.334 11.48 20.0071C11.4545 16.4238 11.4927 12.8404 11.4417 9.25704C11.429 8.23861 11.6329 7.43392 12.3977 6.67953C13.7871 5.29647 15.0491 3.80026 16.3747 2.34176C16.5277 2.19088 16.6679 2.01486 16.9101 1.75082Z" fill="#A8A8A8"/>
<path d="M18.376 14.3995C17.5219 14.3995 16.6806 14.3995 15.8266 14.3995C15.3167 14.3995 14.9471 14.2109 14.9471 13.6451C14.9471 13.0793 15.3167 12.8781 15.8266 12.8781C17.5602 12.8656 19.3065 12.8656 21.04 12.8781C21.6009 12.8781 22.047 13.2679 21.996 13.6828C21.9323 14.2235 21.5626 14.3995 21.0528 14.3995C20.1477 14.3869 19.2682 14.3995 18.376 14.3995Z" fill="#A8A8A8"/>
<path d="M18.3887 10.2C17.5219 10.2 16.6551 10.1875 15.7756 10.2C15.2658 10.2126 14.9471 9.99886 14.9343 9.48336C14.9088 8.93013 15.2403 8.69124 15.7756 8.69124C17.5602 8.69124 19.332 8.69124 21.1165 8.69124C21.6519 8.69124 21.996 8.96785 21.9833 9.48336C21.9705 9.96114 21.6391 10.2126 21.1292 10.2126C20.2115 10.1875 19.3065 10.2 18.3887 10.2Z" fill="#A8A8A8"/>
<path d="M18.4397 17.2159C19.3065 17.2159 20.186 17.2285 21.0528 17.2159C21.6009 17.2033 21.9068 17.4799 21.9833 17.9703C22.0598 18.3978 21.6646 18.7247 21.091 18.7247C19.332 18.7372 17.5602 18.7247 15.8011 18.7247C15.2785 18.7247 14.9343 18.5109 14.9343 17.9451C14.9471 17.3793 15.304 17.2033 15.8266 17.2033C16.7061 17.2285 17.5729 17.2159 18.4397 17.2159Z" fill="#A8A8A8"/>
</svg>
