<svg width="24" height="17" viewBox="0 0 24 17" fill="none" xmlns="http://www.w3.org/2000/svg">
<path d="M11.8201 3.06825C12.0456 2.84296 12.271 2.61767 12.5184 2.36867C12.4961 2.348 12.4745 2.32821 12.4537 2.30909C12.3133 2.18016 12.2056 2.08124 12.0979 1.94186C12.0251 1.88754 11.9536 1.83321 11.8825 1.7792C11.6394 1.5945 11.401 1.41341 11.133 1.2483C10.6135 0.928193 10.0444 0.661438 9.45069 0.501386C9.42036 0.493839 9.39025 0.486292 9.36031 0.47879C9.07285 0.40674 8.80186 0.338817 8.51057 0.314657C8.41161 0.305766 8.31265 0.299838 8.21369 0.29391C8.01577 0.282054 7.81785 0.270198 7.61993 0.234631C7.47921 0.219459 7.3465 0.238805 7.21269 0.258311C7.11124 0.2731 7.00915 0.287982 6.90246 0.287982C6.58084 0.287982 6.25922 0.341333 5.9376 0.421359C5.26962 0.608087 4.60164 0.821491 3.98314 1.19495C3.92129 1.23496 3.86563 1.2683 3.80996 1.30165C3.7543 1.33499 3.69863 1.36834 3.63678 1.40835C3.26568 1.62176 2.91932 1.88851 2.5977 2.20862C2.2266 2.5554 1.88024 2.9822 1.55862 3.40901C1.06382 4.10257 0.692721 4.84949 0.42058 5.67642C0.27214 6.12991 0.17318 6.55672 0.0989601 7.03687C0.04948 7.3303 0 7.62373 0 7.94384V8.7441C0 9.14423 0.04948 9.51769 0.14844 9.89115C0.2474 10.4513 0.39584 11.0115 0.6185 11.545C0.964861 12.452 1.4844 13.2523 2.1029 13.9458C2.11026 13.9547 2.11758 13.9636 2.12488 13.9725C2.31377 14.2017 2.48228 14.4062 2.69666 14.586C3.06776 14.8795 3.43887 15.1729 3.8347 15.413C4.10684 15.573 4.40372 15.7064 4.7006 15.8398C5.1954 16.0265 5.6902 16.2132 6.20974 16.2933C6.40372 16.3211 6.60446 16.3417 6.80843 16.3627C6.99467 16.3818 7.1836 16.4012 7.37253 16.4266C7.57407 16.4701 7.79203 16.4427 7.99966 16.4167C8.0469 16.4108 8.09361 16.4049 8.13947 16.4C8.48583 16.3733 8.83219 16.3466 9.15381 16.2666C9.94549 16.0799 10.7124 15.7864 11.4299 15.3329C11.8999 15.0128 12.3205 14.6127 12.7411 14.2126C12.8153 14.1325 12.8896 14.0258 12.9638 13.9191C13.0032 13.8681 13.0427 13.8198 13.0813 13.7725C13.1638 13.6713 13.2427 13.5747 13.3101 13.4657C13.607 13.0122 13.8792 12.532 14.0771 12.0252C14.3245 11.4116 14.4977 10.7981 14.5719 10.1579C14.5832 10.0845 14.5894 10.0111 14.5951 9.94284C14.6018 9.86226 14.608 9.78886 14.6214 9.73109C14.677 9.451 14.6909 9.17091 14.7048 8.89081C14.7095 8.79745 14.7141 8.70409 14.7203 8.61073C14.7203 8.44501 14.7008 8.30031 14.6791 8.13932C14.6764 8.11891 14.6736 8.09823 14.6708 8.07722C14.6708 7.86381 14.6461 7.62373 14.6214 7.41033C14.6214 7.37476 14.5994 7.3392 14.5774 7.30363C14.5664 7.28584 14.5554 7.26806 14.5471 7.25028H7.54571C7.49623 7.57038 7.49623 9.8378 7.54571 10.0512H10.6877C10.7923 10.0512 10.8995 10.0484 11.0093 10.0455C11.2372 10.0395 11.4763 10.0332 11.7268 10.0512C11.702 10.3713 11.6278 10.6647 11.5041 10.9315C11.3557 11.2783 11.1577 11.5984 10.9351 11.9185C10.6135 12.3453 10.2176 12.6921 9.77231 12.9588C9.22803 13.3056 8.60953 13.4657 7.99103 13.519C7.57045 13.5724 7.14987 13.5457 6.72929 13.4657C6.35818 13.3856 6.01182 13.2789 5.6902 13.1189C5.63954 13.0937 5.58888 13.0691 5.53851 13.0447C5.2691 12.9142 5.00799 12.7876 4.79956 12.5854C4.50269 12.3453 4.23055 12.0519 3.95841 11.7584C3.88419 11.6784 3.80996 11.5717 3.76048 11.4917C3.48834 11.0382 3.26568 10.6114 3.0925 10.1046C2.89458 9.54437 2.82036 8.98418 2.79562 8.424C2.79562 8.3173 2.80799 8.21726 2.82036 8.11723C2.83273 8.0172 2.8451 7.91716 2.8451 7.81046C2.86984 7.46368 2.94406 7.1169 3.04302 6.79679C3.16672 6.36999 3.36464 5.96985 3.5873 5.56972C3.85944 5.06289 4.25528 4.68943 4.65112 4.31598C4.68176 4.2912 4.71002 4.26643 4.73739 4.24244C4.79841 4.18896 4.85494 4.13941 4.92326 4.10257C5.24488 3.91584 5.5665 3.72912 5.88812 3.56906C6.28396 3.38234 6.70454 3.27563 7.12512 3.24896C7.47149 3.22228 7.84259 3.22228 8.18895 3.27563C8.80745 3.38234 9.37647 3.59574 9.89601 3.9692C10.0778 4.07811 10.2267 4.20482 10.3964 4.34932C10.4345 4.38176 10.4737 4.41511 10.5145 4.44935L11.4794 3.40901C11.5948 3.29345 11.7075 3.18085 11.8201 3.06825Z" fill="#A8A8A8"/>
<path d="M17.5159 9.81113H19.693C19.693 10.1046 19.693 10.3713 19.6683 10.6914V11.4383C19.6683 11.5059 19.6667 11.5717 19.6651 11.6367C19.6605 11.8284 19.6561 12.0127 19.693 12.2119C20.2868 12.2653 21.6227 12.2386 21.8206 12.1853V9.86448H23.973C24.0225 9.38433 23.9978 7.70377 23.9483 7.49037H21.8454L21.8206 7.46369C21.8206 7.45236 21.8206 7.44584 21.8187 7.44004C21.8162 7.4322 21.8101 7.42568 21.7959 7.41034V5.19628C21.499 5.14293 19.8909 5.14293 19.6683 5.19628V6.31665C19.6683 6.44016 19.671 6.56367 19.6737 6.68815C19.6792 6.94005 19.6848 7.1959 19.6683 7.46369H18.0354C17.9921 7.46369 17.9488 7.46203 17.9055 7.46036C17.7757 7.45536 17.6458 7.45036 17.5159 7.49037V9.81113Z" fill="#A8A8A8"/>
</svg>
