<svg width="48" height="55" viewBox="0 0 48 55" fill="none" xmlns="http://www.w3.org/2000/svg">
<g clip-path="url(#clip0)">
<path d="M0.31897 12.7872C2.58531 12.6696 4.59016 12.1699 5.86861 10.2298C6.3335 9.52426 6.76933 8.64238 6.82744 7.81929C6.94367 6.2613 7.75723 5.58519 9.09379 5.08545C13.5393 3.52746 17.9558 1.7931 22.4303 0.235108C23.273 -0.0588522 24.3771 -0.0882482 25.1906 0.205712C30.072 1.91068 34.9243 3.73324 39.7475 5.5264C40.1543 5.67338 40.7064 6.05552 40.7354 6.37888C41.2003 10.5237 43.4667 12.699 47.6797 12.7872C48.348 18.0785 47.9703 23.2228 46.8371 28.3083C44.6579 38.2736 39.8638 46.4751 31.0889 51.9134C29.5199 52.8834 27.8347 53.6477 26.2076 54.4708C24.6676 55.2351 23.1567 55.1469 21.5877 54.4414C13.2197 50.7669 7.17611 44.7701 3.57321 36.2747C0.551416 29.1314 -0.407422 21.6354 0.144636 13.9043C0.173692 13.5809 0.231803 13.2576 0.31897 12.7872ZM2.99209 18.8134C2.90493 18.8134 2.81776 18.8428 2.70154 18.8428C3.19548 22.1352 3.48604 25.4569 4.21243 28.6905C6.74028 39.4494 12.7257 47.4158 23.0115 51.7076C23.5054 51.9133 24.1737 52.0015 24.6386 51.8252C27.9509 50.5317 31.0018 48.7092 33.6458 46.2987C42.3335 38.3324 44.9485 27.9556 45.0066 16.6087C45.0066 16.1678 44.4255 15.5211 43.9897 15.3447C41.1132 14.1688 39.2245 12.1405 38.2076 9.1715C38.0042 8.58358 37.4231 7.96627 36.842 7.7311C32.8032 6.14371 28.7645 4.67391 24.7257 3.2335C24.2609 3.05713 23.6507 3.05713 23.2149 3.2335C19.118 4.70331 15.0502 6.2025 10.9824 7.78989C10.4594 7.99566 9.9364 8.61298 9.73301 9.1715C8.86134 11.6408 7.55384 13.7867 5.11316 14.698C3.25359 15.3741 2.70154 16.4323 3.02115 18.2549C3.02115 18.4019 2.99209 18.6076 2.99209 18.8134Z" fill="white"/>
<path d="M36 19.5485C35.8547 20.0776 35.7094 20.548 35.5932 20.9889C35.5061 21.2829 35.477 21.5474 35.3898 21.8414C35.3317 22.0472 35.2736 22.2823 35.2155 22.4881C35.0702 22.9584 34.9249 23.4288 34.8087 23.9285C34.6925 24.3988 34.5763 24.8986 34.4601 25.3689C34.4019 25.6629 34.2857 25.9274 34.1985 26.192C34.1114 26.4566 34.0533 26.7211 33.9952 26.9857C33.908 27.3384 33.8208 27.6618 33.7337 28.0146C33.6465 28.3085 33.5884 28.6319 33.5012 28.9258C33.414 29.2198 33.3269 29.5138 33.2397 29.8077C33.1816 30.0429 33.1235 30.2487 33.0363 30.4838C32.862 31.0129 32.4843 31.3657 32.0194 31.6009C31.5835 31.8066 31.1477 31.8066 30.6828 31.8066C30.5085 31.8066 30.3341 31.8066 30.1598 31.8066C30.1598 31.836 30.1598 31.8654 30.1308 31.8654C30.276 31.9536 30.4213 32.0418 30.5666 32.1006C31.6126 32.3946 32.3099 33.0707 32.7167 34.0995C32.9782 34.805 33.0073 35.5105 32.8329 36.216C32.6877 36.7452 32.3971 37.2449 31.9903 37.6271C31.6126 38.0386 31.1477 38.3326 30.6247 38.4795C30.1889 38.5971 29.753 38.6559 29.2881 38.5971C28.7651 38.5089 28.2712 38.362 27.8354 38.068C27.3705 37.7446 27.0218 37.3331 26.7312 36.8334C26.3535 36.1573 26.3245 35.393 26.4407 34.6581C26.5569 33.9232 26.9346 33.3058 27.4867 32.8061C27.7772 32.5415 28.1259 32.3358 28.4746 32.1888C28.678 32.1006 28.8814 32.0418 29.0847 31.9536C29.1138 31.9536 29.1429 31.9242 29.1719 31.8654C26.1501 31.836 23.1574 31.836 20.1356 31.836C20.1356 31.8654 20.1356 31.8948 20.1065 31.9242C20.2518 31.983 20.3971 32.1006 20.5424 32.13C21.4431 32.3946 22.0823 32.9825 22.5472 33.8056C22.954 34.5111 22.9831 35.3048 22.8378 36.0691C22.6344 37.0097 22.0823 37.7446 21.2397 38.215C20.5714 38.5971 19.8741 38.7147 19.1186 38.5971C17.8402 38.3914 17.0266 37.6565 16.5617 36.4512C16.3584 35.9809 16.3874 35.4811 16.3874 34.9814C16.4165 34.2171 16.7361 33.5998 17.23 33.0707C17.6077 32.6297 18.1017 32.3064 18.6828 32.1594C18.8571 32.1006 19.0024 32.0124 19.1768 31.8654C19.0315 31.8654 18.9153 31.836 18.77 31.836C18.4794 31.836 18.2179 31.836 17.9274 31.8066C17.2591 31.7478 16.7942 31.3951 16.4455 30.866C16.2421 30.572 16.155 30.2487 16.0969 29.8959C16.0387 29.5725 15.9225 29.2492 15.8354 28.9258C15.7772 28.6907 15.7191 28.4261 15.661 28.1909C15.6029 27.8676 15.5448 27.5736 15.4576 27.2503C15.3705 26.9563 15.2833 26.6623 15.1961 26.339C15.138 26.1038 15.0799 25.898 15.0218 25.6629C14.9637 25.3395 14.8765 25.0456 14.8184 24.7222C14.7312 24.3988 14.6441 24.1049 14.5569 23.7815C14.4697 23.4876 14.4116 23.1642 14.3535 22.8702C14.2663 22.5175 14.1792 22.1941 14.092 21.8414C14.0339 21.6062 13.9467 21.3417 13.9177 21.1065C13.8596 20.7831 13.8015 20.4892 13.7143 20.1658C13.6271 19.8425 13.54 19.5485 13.4528 19.2545C13.3947 19.0194 13.3366 18.8136 13.2785 18.5784C13.1913 18.3139 13.1913 18.3139 12.9007 18.2845C12.2034 18.2845 11.477 18.2845 10.7797 18.2845C10.4019 18.2845 10.1114 18.1375 9.87893 17.8435C9.41404 17.2262 9.76271 16.3443 10.3729 16.1973C10.5472 16.1679 10.7506 16.1385 10.954 16.1385C11.6804 16.1385 12.3777 16.1385 13.1041 16.1385C13.5981 16.1385 14.092 16.2267 14.4988 16.5501C14.9056 16.8735 15.1671 17.2262 15.2833 17.7259C15.3705 18.0493 15.4576 18.3726 15.5448 18.7254C15.632 19.0194 15.6901 19.3133 15.7482 19.6073C15.8354 19.9306 15.9225 20.254 16.0097 20.5774C16.0969 20.8713 16.155 21.1653 16.2421 21.4592C16.3293 21.8414 16.4165 22.1941 16.5036 22.5763C16.5908 22.8996 16.6489 23.1936 16.707 23.517C16.7942 23.8403 16.8523 24.1343 16.9395 24.4576C17.0266 24.781 17.0847 25.1337 17.1719 25.4571C17.2591 25.7805 17.3462 26.1038 17.4334 26.4272C17.4915 26.6623 17.5496 26.9269 17.6077 27.1621C17.6659 27.456 17.724 27.7794 17.8111 28.0733C17.8693 28.3379 17.9564 28.6025 18.0145 28.867C18.0436 29.014 18.1017 29.161 18.1308 29.308C18.1889 29.6313 18.276 29.7195 18.5956 29.7195C22.6344 29.7195 26.7022 29.7195 30.7409 29.7195C31.0605 29.7195 31.0896 29.6901 31.1768 29.3374C31.293 28.867 31.4383 28.3967 31.5835 27.9264C31.6416 27.6912 31.7288 27.456 31.7869 27.2209C31.9032 26.7505 32.0194 26.2508 32.1356 25.7805C32.2518 25.3101 32.3971 24.8398 32.5424 24.3694C32.6877 23.8697 32.8039 23.3994 32.9201 22.8996C33.0073 22.6057 33.0654 22.3117 33.1816 22.0178C33.2688 21.7532 33.2107 21.6356 32.9201 21.6356C32.8039 21.6356 32.6877 21.6356 32.5714 21.6356C27.8644 21.6356 23.1574 21.6356 18.4504 21.6356C17.9564 21.6356 18.0726 21.6944 17.8983 21.2241C17.7821 20.9301 17.753 20.6067 17.6949 20.2834C17.6659 20.1364 17.6077 19.9894 17.5787 19.8425C17.5206 19.6073 17.5787 19.5485 17.8111 19.5485C17.8693 19.5485 17.9564 19.5485 18.0145 19.5485C23.8547 19.5485 29.6949 19.5485 35.5351 19.5485C35.6223 19.5191 35.7966 19.5485 36 19.5485ZM19.6126 36.4218C20.368 36.3924 20.8039 35.8927 20.7748 35.246C20.7748 34.6287 20.3971 34.0701 19.6126 34.0701C18.8571 34.0407 18.4213 34.6287 18.4213 35.2166C18.4213 35.8633 18.9443 36.4512 19.6126 36.4218ZM29.6659 36.4218C30.276 36.4512 30.8571 35.8339 30.8281 35.246C30.799 34.6287 30.3923 34.0701 29.6368 34.0701C28.8814 34.0995 28.5036 34.5993 28.5036 35.2166C28.5036 35.9221 28.8814 36.3924 29.6659 36.4218Z" fill="white"/>
</g>
<defs>
<clipPath id="clip0">
<rect width="48" height="55" fill="white"/>
</clipPath>
</defs>
</svg>
