<svg width="65" height="59" viewBox="0 0 65 59" fill="none" xmlns="http://www.w3.org/2000/svg">
<path d="M56.623 19.3548C56.1645 18.8712 55.6366 18.4154 55.2615 17.8766C54.9142 17.3516 54.5669 17.3516 53.9973 17.4345C53.1221 17.5726 52.2052 17.6141 51.33 17.4759C50.3436 17.3102 49.3851 16.951 48.4543 16.578C47.7597 16.3017 47.1484 15.8596 46.4955 15.5142C45.8981 15.1965 45.3007 14.9064 44.62 14.5748C44.7034 14.5057 44.8423 14.3123 45.009 14.257C45.787 14.0636 46.5788 13.8702 47.3707 13.7597C47.9819 13.6768 48.621 13.7321 49.2461 13.7459C50.8854 13.8012 52.2886 14.4366 53.4694 15.5557C53.7611 15.832 53.9973 16.1911 54.3168 16.4398C54.4974 16.5918 54.7753 16.6194 55.0114 16.7023C55.0531 16.647 55.0948 16.578 55.1365 16.5227C54.9698 16.3017 54.8447 16.053 54.6502 15.8872C53.3583 14.7544 51.8718 13.7735 50.7882 12.4749C49.9963 11.5217 49.5518 12.4058 48.9544 12.4197C47.1901 12.4197 45.4258 12.5164 43.6753 12.4197C42.4528 12.3506 41.2442 12.0052 39.7438 11.7427C40.4384 11.3006 40.9663 10.8724 41.5637 10.6375C42.5917 10.2369 43.6614 9.94678 44.7173 9.65666C45.9259 9.33892 47.0234 9.47707 48.2181 10.0297C49.2739 10.527 50.302 11.2592 51.58 11.2592C51.8162 11.2592 52.1635 11.6184 52.2747 11.8947C52.8859 13.3453 54.0112 14.3814 55.0392 15.5004C55.7755 16.3017 56.5396 17.1306 56.5257 18.3601C56.5257 18.6088 56.7619 18.8712 56.9008 19.1199C56.8174 19.2028 56.7202 19.2719 56.623 19.3548Z" fill="white"/>
<path d="M9.86149 16.7714C11.2507 15.5142 12.5566 14.0084 14.5015 13.8012C16.4048 13.5939 18.3497 13.5663 20.1418 14.561C19.1971 14.9892 18.3358 15.3761 17.4884 15.7905C16.5159 16.2602 15.599 16.951 14.571 17.1996C13.3485 17.4898 12.0287 17.5312 10.7784 17.4345C10.0699 17.3792 9.62532 17.4069 9.23634 18.0147C8.93071 18.4844 8.51394 18.8712 7.98603 19.2028C8.41669 18.3463 7.74986 17.324 8.68065 16.5503C9.667 15.7214 10.5005 14.6853 11.3341 13.6906C11.7092 13.2347 11.9731 12.6407 12.1815 12.0743C12.4038 11.4802 12.7372 11.3006 13.3624 11.2039C14.182 11.0796 15.0294 10.8033 15.7379 10.3889C17.0299 9.61522 18.2941 9.39418 19.7945 9.62903C21.1281 9.85007 22.2951 10.4165 23.5176 10.8862C23.9066 11.0382 24.1983 11.4112 24.5318 11.6875C24.4901 11.798 24.4345 11.9223 24.3928 12.0328C22.0867 12.2401 19.7806 12.4887 17.4745 12.6683C16.5437 12.7374 15.6407 12.5854 14.7933 12.0605C14.1264 11.646 13.8347 12.4749 13.4735 12.765C12.2926 13.7183 11.1813 14.7958 10.0699 15.832C9.87539 16.0254 9.76425 16.3155 9.61143 16.5641C9.69478 16.6056 9.77814 16.6885 9.86149 16.7714Z" fill="white"/>
<path d="M47.4818 8.37187C46.8428 8.52384 46.3704 8.66199 45.8981 8.73106C45.5369 8.78632 45.1618 8.74488 44.7867 8.75869C42.8279 8.86921 41.3414 7.90216 39.8966 6.7417C39.077 6.07859 38.0628 5.60888 37.0904 5.15298C36.4513 4.86287 35.7428 4.73853 34.7843 4.46223C35.0482 4.31027 35.2149 4.17212 35.4094 4.13068C37.4377 3.6886 39.4243 3.19126 41.5637 3.53663C42.8835 3.74386 44.1477 4.0616 45.1896 4.83524C45.8425 5.31876 46.2871 6.0924 46.7594 6.79697C47.0373 7.1976 47.1901 7.69494 47.4818 8.37187Z" fill="white"/>
<path d="M17.2939 8.26135C17.4884 7.76401 17.7662 7.33575 17.8079 6.87985C17.8912 6.07859 18.572 5.76084 19.0721 5.47073C20.2946 4.75235 21.6144 4.25501 23.1147 4.29646C24.2122 4.3379 25.3236 4.17212 26.4211 4.03397C26.949 3.9649 27.4491 3.73004 28.116 3.52282C26.8934 6.29963 21.2948 10.0435 17.2939 8.26135Z" fill="white"/>
<path d="M48.746 50.4937C49.2184 50.1345 49.9269 49.6786 50.5381 49.1122C51.9135 47.8136 53.4555 46.9433 55.3726 46.736C56.7758 46.5841 58.165 46.3354 59.7765 46.0867C59.5959 46.4736 59.5403 46.7637 59.3597 46.9571C58.1789 48.2557 56.7758 49.3056 55.2893 50.2312C55.1087 50.3417 54.8586 50.3556 54.6364 50.4385C53.4694 50.8667 52.2886 51.1845 51.0382 50.9911C50.1769 50.8529 49.3156 50.618 48.746 50.4937Z" fill="white"/>
<path d="M45.8703 0.0828898C46.301 0.276299 46.7594 0.386819 47.1067 0.635489C50.2464 2.90114 52.4414 5.65032 51.6634 9.91915C47.843 7.77783 46.6205 4.14449 45.8703 0.0828898Z" fill="white"/>
<path d="M16.4603 50.3141C16.4187 50.3832 16.377 50.5213 16.3214 50.5352C14.7516 50.7009 13.154 51.0739 11.598 50.9358C10.3477 50.8253 9.09742 50.245 8.08328 49.3885C7.22196 48.6563 6.38842 47.8965 5.58267 47.109C5.3465 46.8742 4.72134 46.7222 5.06865 46.2111C5.65213 46.2525 6.16614 46.2663 6.68016 46.3492C8.16663 46.5841 9.69479 46.7084 11.1257 47.1229C12.2649 47.4544 13.2095 48.2419 14.0986 49.0984C14.7238 49.7063 15.2517 50.77 16.4742 50.3279L16.4603 50.3141Z" fill="white"/>
<path d="M21.9756 54.1823C21.8922 54.3066 21.8366 54.5139 21.6977 54.5968C20.1001 55.55 18.3775 56.0335 16.5298 55.702C15.7518 55.5638 14.9877 55.2461 14.2376 54.9836C13.5568 54.7349 12.8622 54.4724 12.2093 54.1547C11.7231 53.906 11.0562 53.754 11.0979 52.9942C14.8488 52.193 18.5303 51.516 21.9756 54.1823Z" fill="white"/>
<path d="M5.5271 22.9467C3.76278 21.6481 3.30433 19.6311 3.30433 17.7384C3.30433 15.8181 4.02673 13.9117 4.41571 12.019C4.84637 11.9914 5.05476 11.9776 5.19368 11.9776C6.49956 15.6109 7.6943 19.2166 5.5271 22.9467Z" fill="white"/>
<path d="M53.8167 52.9251C53.4555 53.3534 53.2749 53.7264 52.9832 53.8784C51.9968 54.3757 50.9966 54.8316 49.9685 55.2461C48.4682 55.8401 46.8706 55.9368 45.3146 55.6467C44.4811 55.4947 43.7031 54.9698 42.9252 54.5829C42.8001 54.5139 42.7584 54.2652 42.689 54.0856C43.3558 53.7126 43.9254 53.2982 44.5505 53.0633C46.0787 52.4693 47.6485 52.0272 49.3156 52.3587C49.3573 52.3725 49.4129 52.3587 49.4545 52.3726C50.8021 52.5383 52.1496 52.7179 53.8167 52.9251Z" fill="white"/>
<path d="M18.822 0C18.6136 0.925603 18.4608 1.68543 18.2524 2.43143C18.0718 3.09455 17.8079 3.73004 17.6134 4.39316C17.1272 6.03714 16.0852 7.36338 14.96 8.60673C14.4598 9.15932 13.7097 9.47707 13.0706 9.89152C12.0287 6.39633 14.2792 2.3071 18.822 0Z" fill="white"/>
<path d="M63.3051 38.0741C63.2079 40.6989 58.7068 45.7552 54.553 44.8572C55.1226 43.904 55.5532 42.9231 56.2201 42.1218C57.8316 40.1739 61.8603 38.1708 63.3051 38.0741Z" fill="white"/>
<path d="M9.8476 45.1197C8.72233 44.9125 7.48591 44.9263 6.49956 44.4428C5.31871 43.8625 4.19344 42.9784 3.33212 41.9837C2.37355 40.8785 1.7345 39.497 0.956533 38.226C1.05378 38.1155 1.13713 38.005 1.23438 37.9083C1.88732 38.1708 2.54025 38.4471 3.20708 38.7095C6.2495 39.9114 8.75011 41.6936 9.98652 44.8434C9.93095 44.9125 9.88928 45.0092 9.8476 45.1197Z" fill="white"/>
<path d="M59.8182 30.835C59.4292 29.0943 59.3319 27.3536 59.9432 25.8064C60.749 23.7479 61.7075 21.6895 63.5691 20.1008C64.2081 24.936 63.6525 28.2654 59.8182 30.835Z" fill="white"/>
<path d="M6.27728 38.0464C5.27704 38.0464 4.42961 37.6182 3.63775 37.0379C2.30409 36.0709 1.54001 34.6618 0.748149 33.3079C0.164672 32.3132 -0.085389 30.6692 0.0257494 29.3015C3.31822 30.9455 6.55513 34.7308 6.27728 38.0464Z" fill="white"/>
<path d="M65 29.3292C64.7083 30.3377 64.4443 31.3738 64.097 32.3685C63.8331 33.1145 63.3329 33.8052 63.1523 34.5651C62.9717 35.3525 62.2771 35.6288 61.8603 36.1676C61.388 36.7616 60.7351 37.259 60.0682 37.6458C59.582 37.9221 58.9569 37.9635 58.1233 38.1846C58.4984 36.8307 58.6095 35.5874 59.1513 34.5789C60.4017 32.2303 62.4299 30.5725 64.6388 29.1634C64.7499 29.2048 64.875 29.2739 65 29.3292Z" fill="white"/>
<path d="M59.1236 23.071C58.8457 22.4493 58.5679 21.8967 58.3734 21.3303C57.9288 20.1008 57.7204 18.816 57.9288 17.5174C58.0816 16.6056 58.4151 15.7214 58.6512 14.8235C58.7485 14.4781 58.7624 14.1051 58.8596 13.7597C59.0402 13.1519 59.2764 12.5716 59.4848 11.9499C61.5686 14.1603 62.4021 20.1146 59.1236 23.071Z" fill="white"/>
<path d="M18.7109 57.8709C22.0728 56.1026 25.4486 54.3757 29.5747 55.9506C29.1579 56.448 28.7967 57.1111 28.2271 57.4841C27.5325 57.9538 26.6573 58.1472 25.8793 58.5202C24.2261 59.3077 22.4896 58.8241 20.8086 58.8518C20.0862 58.8656 19.3638 58.4373 18.6414 58.2163C18.6692 58.0919 18.6831 57.9814 18.7109 57.8709Z" fill="white"/>
<path d="M35.0899 55.9092C39.2159 54.3895 42.6612 56.0888 46.2593 58.0229C44.0087 59.2386 41.6748 59.0866 39.4799 58.7965C37.7155 58.5617 36.0901 57.567 35.0899 55.9092Z" fill="white"/>
<path d="M56.3729 15.7767C54.3446 15.2379 52.6914 8.73106 53.7195 5.11154C55.4282 6.32726 56.2618 8.13702 56.8591 9.93296C57.4982 11.8394 57.5815 13.884 56.3729 15.7767Z" fill="white"/>
<path d="M4.81859 30.8488C0.970425 28.1825 0.373057 24.4939 1.05378 20.3495C1.12324 20.2942 1.20659 20.2389 1.27606 20.1975C1.65115 20.6119 2.05402 21.0126 2.38744 21.4546C4.37404 24.2453 5.59656 27.2431 4.81859 30.8488Z" fill="white"/>
<path d="M8.36113 15.8043C6.08279 13.3867 8.11106 7.08708 11.0146 5.15298C11.0423 5.34639 11.084 5.51217 11.084 5.67795C11.084 7.22523 11.1396 8.75869 11.0701 10.306C11.0146 11.4112 10.8478 12.4887 10.0699 13.4143C9.47251 14.1189 9.05574 14.9478 8.54173 15.7214C8.50005 15.7767 8.4167 15.7767 8.36113 15.8043Z" fill="white"/>
<path d="M58.6512 23.4993C58.6512 24.19 58.6512 24.7702 58.6512 25.3505C58.5957 25.3643 58.554 25.3643 58.4984 25.3781C58.3873 25.1985 58.2761 25.0189 58.165 24.8393C57.7066 24.0242 56.9842 23.9137 56.1089 23.8308C54.2474 23.665 52.747 22.7256 51.455 21.3856C50.4687 20.3633 49.3295 19.4791 48.0514 18.3463C49.3295 18.4292 50.4409 18.4154 51.5245 18.5949C52.3302 18.7331 53.1221 19.0508 53.8723 19.4238C54.7614 19.8659 55.6505 20.3356 56.1367 21.3303C56.4979 22.0763 57.0397 22.7533 57.5537 23.4164C57.9705 23.9413 57.9983 23.9137 58.6512 23.4993Z" fill="white"/>
<path d="M53.3444 45.5756C53.0248 45.617 52.8026 45.6308 52.5386 45.6585C52.5247 45.5065 52.4553 45.3407 52.4969 45.2993C53.4416 44.2908 52.3163 43.8487 51.9551 43.1856C51.6495 42.633 51.3022 42.0528 51.1772 41.4449C50.8715 39.8976 50.3714 38.378 50.9688 36.7616C51.205 36.1261 51.066 35.3525 51.1077 34.6479C51.1216 34.3716 51.1494 34.0953 51.1911 33.6256C52.3302 34.9657 53.2888 36.1538 53.6083 37.7287C53.775 38.5714 54.1501 39.4141 54.1779 40.2568C54.2057 40.989 53.8584 41.735 53.6917 42.4672C53.5666 42.9922 53.4138 43.5172 53.3444 44.0559C53.2888 44.5395 53.3444 45.023 53.3444 45.5756Z" fill="white"/>
<path d="M12.2788 45.7275C11.5147 45.6308 11.1952 45.3407 11.1396 44.7743C11.0284 43.6829 10.9312 42.5916 10.7923 41.514C10.7089 40.9199 10.3755 40.2983 10.4728 39.7595C10.6534 38.7234 11.0007 37.7011 11.4174 36.7202C11.7092 36.0018 12.2232 35.3801 12.64 34.717C12.8483 34.3993 13.0567 34.0815 13.279 33.7638C13.3901 33.8467 13.5013 33.9296 13.5985 33.9986C13.5985 34.5236 13.5568 35.0486 13.6124 35.5735C13.6958 36.3886 13.8486 37.1899 13.9319 38.005C13.9736 38.4194 14.0014 38.8477 13.9319 39.2345C13.7513 40.1877 13.5985 41.1686 13.2651 42.0804C13.0428 42.7159 12.6122 43.3237 12.1259 43.7935C11.6258 44.277 11.6397 44.65 12.0287 45.1335C12.1259 45.244 12.1537 45.4236 12.2788 45.7275Z" fill="white"/>
<path d="M7.91657 39.5108C7.91657 38.7372 7.88879 37.9635 7.91657 37.2037C7.95825 36.1123 7.99993 35.0209 8.13885 33.9296C8.31945 32.5757 9.19466 31.5396 10.0977 30.6002C10.8756 29.8127 11.8203 29.1772 12.6955 28.5003C12.7928 28.4312 12.9734 28.4727 13.0289 28.4727C12.8761 29.1772 12.765 29.8403 12.5705 30.5035C12.3621 31.2356 12.0843 31.9402 11.862 32.6586C11.7508 33.0178 11.6953 33.4046 11.598 33.7776C11.0701 35.7117 9.88928 37.1346 8.11106 38.1708C8.11106 38.6128 8.11106 39.0687 8.11106 39.5246C8.05549 39.5108 7.98603 39.5108 7.91657 39.5108Z" fill="white"/>
<path d="M16.4742 50.3279C16.377 49.8859 16.377 49.4023 16.1686 49.0293C15.6129 47.9656 14.96 46.9571 14.3765 45.9071C14.2792 45.7275 14.2653 45.4651 14.2653 45.244C14.2653 44.0974 14.182 42.9369 14.3487 41.8041C14.4737 40.9338 14.9044 40.1187 15.2239 39.276C15.2656 39.1654 15.4879 39.124 15.6685 39.0273C15.9602 39.8286 16.2381 40.5884 16.5159 41.3482C16.8632 42.2738 17.405 43.1856 17.5161 44.1388C17.669 45.4651 17.9746 46.8604 17.28 48.159C16.8076 49.0293 16.891 49.5405 17.5856 50.397C17.6967 50.5352 17.7662 50.6871 17.7801 51.0325C17.5856 50.9358 17.3911 50.8253 17.1966 50.7286C16.9605 50.6042 16.7104 50.4661 16.4742 50.3279Z" fill="white"/>
<path d="M56.9425 39.5661C56.6924 39.5384 56.5257 39.5246 56.3451 39.497C56.4146 39.0411 56.484 38.6267 56.5674 38.1569C52.8442 36.14 52.7887 32.327 51.7884 28.97C51.8579 28.9009 51.9135 28.8318 51.9829 28.749C52.4414 28.97 52.9693 29.0943 53.3305 29.4259C54.5113 30.5035 55.6644 31.5672 56.2062 33.1974C56.8869 35.2834 56.8869 37.3833 56.9425 39.5661Z" fill="white"/>
<path d="M18.8498 43.3237C19.2666 43.6415 19.6972 43.8625 19.9612 44.2079C20.7808 45.2717 21.6144 46.3354 22.2951 47.4821C23.1147 48.8912 23.4204 50.4523 23.2953 52.1101C23.2398 52.7732 23.4065 53.4639 23.462 54.1823C23.3926 54.1271 23.0731 54.0027 23.087 53.8922C23.1564 52.8699 22.3646 52.4278 21.7533 51.8614C21.1698 51.3226 20.5724 50.8115 19.989 50.2865C19.9056 50.2174 19.8084 50.1345 19.7528 50.0378C18.8637 48.4077 18.4469 45.4927 18.8498 43.3237Z" fill="white"/>
<path d="M41.3692 53.4916C41.5498 52.0686 41.0219 50.7009 41.7026 49.3747C41.8277 49.126 41.7999 48.7807 41.9388 48.532C42.4945 47.5788 43.0641 46.6255 43.6753 45.6999C44.231 44.8572 44.8423 44.0559 45.6203 42.9922C45.8286 43.5448 46.0787 43.8902 46.0509 44.1941C45.8703 45.8657 45.787 47.5788 45.3146 49.1675C44.9951 50.245 44.0226 51.0601 43.0363 51.7785C42.4528 52.1791 42.0222 52.8008 41.3692 53.4916Z" fill="white"/>
<path d="M14.0986 23.1953C13.7652 23.6927 13.4179 24.1762 13.1123 24.6873C12.64 25.4748 12.2093 26.3037 11.7231 27.0773C11.2924 27.7681 10.8895 28.5279 10.2922 29.0667C9.58365 29.7022 8.70843 30.1857 7.84711 30.6554C7.44423 30.8626 6.93022 30.8488 6.37453 30.8488C7.19417 29.3844 7.02747 27.5609 8.20831 26.3175C9.76425 24.6873 11.7092 23.6374 13.8625 23.0019C13.9597 23.0848 14.0292 23.1401 14.0986 23.1953Z" fill="white"/>
<path d="M46.8428 50.8943C47.1484 50.2865 47.454 49.6924 47.7597 49.1122C46.551 47.1505 47.2595 41.9561 49.135 38.9444C50.427 40.9752 50.5937 43.1856 50.3297 45.4512C50.2464 46.1282 49.7185 46.7637 49.3712 47.413C48.8711 48.3662 48.1348 49.1675 47.8708 50.2727C47.7875 50.6042 47.2873 50.8253 46.9817 51.1016C46.94 51.0187 46.8845 50.9634 46.8428 50.8943Z" fill="white"/>
<path d="M58.3178 31.0699C57.7204 30.9041 57.3037 30.8212 56.9008 30.683C55.3449 30.1857 54.2613 29.1358 53.4555 27.7681C52.7748 26.6214 52.1357 25.461 51.4689 24.3143C51.3578 24.1348 51.1494 24.0104 51.0244 23.8446C50.8576 23.6374 50.7326 23.4164 50.5798 23.1953C50.6354 23.1401 50.6909 23.071 50.7465 23.0157C50.9549 23.0572 51.1772 23.071 51.3717 23.1401C53.5111 23.9275 55.5255 25.0051 56.8174 26.8563C57.6232 28.0306 57.8177 29.6055 58.3178 31.0699Z" fill="white"/>
<path d="M41.2859 46.7775C41.0497 47.6478 40.9247 48.4077 40.6468 49.1122C40.369 49.803 40.0078 50.4799 39.5493 51.0601C38.9936 51.7785 38.3824 52.4969 37.6461 53.008C36.8542 53.5468 35.854 53.7679 35.0343 54.2652C34.6315 54.5139 34.4508 55.1217 34.1591 55.55C34.0341 55.7296 33.8674 55.8677 33.7146 56.0473C34.1035 54.7487 34.4647 53.5192 34.8398 52.2897C35.201 51.143 36.0068 50.2727 36.8264 49.4852C37.6878 48.6563 38.6324 47.9103 39.6049 47.2472C40.0772 46.9433 40.6051 46.363 41.2859 46.7775Z" fill="white"/>
<path d="M7.18028 23.7894C7.47202 23.2091 7.76376 22.6289 8.06939 22.0625C8.84736 20.5843 10.0699 19.714 11.6258 19.0647C13.2095 18.4154 14.7655 18.3739 16.3909 18.4292C15.1406 19.6449 14.0014 20.9435 12.6677 21.9934C11.1118 23.223 9.38916 24.19 7.24974 23.8308C7.20807 23.8308 7.19417 23.817 7.18028 23.7894Z" fill="white"/>
<path d="M30.2137 54.6382C28.8384 53.8784 27.4352 53.1876 26.1155 52.3449C25.6154 52.0272 25.2125 51.4331 24.9346 50.8805C24.3512 49.7063 23.8788 48.4629 23.3787 47.2472C23.337 47.1367 23.3787 46.9847 23.3787 46.6808C23.8927 46.8327 24.3789 46.8604 24.754 47.0952C26.2266 48.0346 27.6297 49.0846 28.7411 50.4661C29.6441 51.5989 30.2693 52.8423 30.2832 54.3205C30.2832 54.431 30.2276 54.5415 30.1998 54.652C30.1859 54.652 30.2137 54.6382 30.2137 54.6382Z" fill="white"/>
<path d="M7.22196 23.8446C6.93022 24.2453 6.65237 24.6735 6.31896 25.0465C6.20782 25.1709 5.95776 25.1571 5.65213 25.2261C5.8744 24.6045 6.055 24.1209 6.19393 23.7065C6.49956 23.7341 6.83297 23.7617 7.16639 23.7894C7.19417 23.817 7.20806 23.8308 7.22196 23.8446Z" fill="white"/>
<path d="M30.1859 54.652C30.5193 55.0112 30.8527 55.3704 31.1723 55.7434C31.0889 55.8125 30.9917 55.8816 30.9083 55.9506C30.2554 55.7848 30.4499 55.0803 30.1998 54.6382C30.2137 54.6382 30.1859 54.652 30.1859 54.652Z" fill="white"/>
<path d="M27.8597 23.824C28.3237 23.632 28.8037 23.416 29.2997 23.176C29.8117 22.92 30.3077 22.648 30.7877 22.36C31.2677 22.056 31.7237 21.744 32.1557 21.424C32.6037 21.088 33.0037 20.736 33.3557 20.368H35.8517V37H32.2757V25.024C31.7957 25.344 31.2597 25.64 30.6677 25.912C30.0757 26.168 29.4997 26.392 28.9397 26.584L27.8597 23.824Z" fill="white"/>
</svg>
