<svg width="52" height="57" viewBox="0 0 52 57" fill="none" xmlns="http://www.w3.org/2000/svg">
<g clip-path="url(#clip0)">
<path d="M46.0858 38.2013C44.8577 37.9155 43.6296 37.7885 42.5308 37.3122C40.3331 36.3595 39.0727 34.5495 38.9111 32.2314C38.7495 29.691 38.6203 27.1189 38.9111 24.642C39.3636 20.6091 42.4661 18.545 46.6029 19.1801C46.8614 19.2119 47.12 19.1801 47.3785 19.1801C46.2474 12.5434 38.3294 3.39796 26.6302 3.04866C14.4139 2.69936 5.91423 11.686 4.33064 19.0214C5.59105 19.0849 6.88378 18.9896 8.11187 19.2119C10.9236 19.7835 12.8626 22.1651 12.9273 25.023C12.9919 27.3094 12.9919 29.564 12.9273 31.8503C12.8303 35.1528 10.2449 37.7567 6.88378 37.9473C3.65196 38.1378 0.614047 35.8832 0.290865 32.676C-0.807954 21.9746 0.969548 12.2893 10.2772 5.11273C23.3338 -4.92181 43.6942 0.476514 49.8024 15.6553C52.0323 21.1807 52.5494 26.9918 51.4829 32.5172C49.3499 43.7267 41.6582 51.3478 30.0883 53.5707C29.5065 53.6977 28.8602 54.1423 28.5047 54.6186C27.115 56.5556 25.2405 57.413 23.1075 56.8414C20.9099 56.2698 19.5202 54.5868 19.4232 52.364C19.3263 50.4587 20.6837 48.5534 22.5904 47.823C24.5942 47.0609 26.6302 47.7278 28.1815 49.5378C28.5693 49.9824 29.3773 50.3952 29.862 50.2999C37.1336 48.9345 42.5308 45.0286 45.9565 38.5506C46.0858 38.3918 46.0858 38.2331 46.0858 38.2013ZM48.5096 28.5796C48.5096 28.5796 48.4773 28.5796 48.5096 28.5796C48.5096 27.4046 48.5743 26.2615 48.4773 25.0865C48.3804 23.3718 46.9907 22.1016 45.3425 22.1016C43.6296 22.1016 42.143 23.4353 42.0783 25.1818C42.0137 27.4046 42.0137 29.6275 42.0783 31.8503C42.143 33.5651 43.5973 34.8353 45.2455 34.8353C47.023 34.8353 48.4127 33.5651 48.5096 31.7868C48.542 30.7072 48.5096 29.6592 48.5096 28.5796ZM9.72778 28.5478C9.72778 27.4364 9.7601 26.325 9.69547 25.2136C9.59851 23.4353 8.3381 22.1968 6.65755 22.1333C4.97701 22.0698 3.42573 23.2448 3.32878 24.9278C3.1995 27.3094 3.1995 29.691 3.32878 32.0409C3.42573 33.7239 5.00932 34.867 6.68987 34.8035C8.37042 34.74 9.63083 33.4698 9.69547 31.6916C9.7601 30.6436 9.72778 29.5957 9.72778 28.5478Z" fill="white"/>
</g>
<defs>
<clipPath id="clip0">
<rect width="52" height="57" fill="white"/>
</clipPath>
</defs>
</svg>
