<svg width="39" height="58" viewBox="0 0 39 58" fill="none" xmlns="http://www.w3.org/2000/svg">
<g clip-path="url(#clip0)">
<path d="M37.3933 53.5293C34.876 52.6641 32.7965 52.0153 30.7899 51.2222C29.659 50.7897 29.0387 51.0059 28.4915 52.0874C27.543 53.9618 26.4485 55.7281 25.1716 57.9991C23.1285 52.4839 21.195 47.3652 19.1155 41.7779C17.6197 45.7431 16.3063 49.2396 14.8105 53.2048C13.6795 51.1862 12.6215 49.528 11.8189 47.7617C11.1257 46.2838 10.3961 45.8151 8.79085 46.5361C6.93023 47.3652 4.96016 47.9059 2.66175 48.6989C4.15755 44.6616 5.39796 40.9488 6.89375 37.344C7.6234 35.5056 7.51395 34.4242 5.90871 32.9463C-0.220378 27.2508 -1.71617 18.1669 2.00507 10.7412C5.87223 3.02708 14.1173 -1.11835 22.9097 0.251446C30.7899 1.47705 37.5757 8.10974 38.7431 16.1122C39.8011 23.1414 37.5757 29.1613 32.1033 33.8475C30.8994 34.8568 30.7899 35.6498 31.3007 37.0196C33.3437 42.3546 35.2773 47.6896 37.3933 53.5293ZM19.4438 35.6138C28.6739 35.6498 36.1894 28.2601 36.1529 19.1402C36.1164 10.2365 28.7104 2.88289 19.6627 2.8108C10.4326 2.7387 2.95362 10.0563 2.88065 19.1762C2.84417 28.1881 10.2866 35.5777 19.4438 35.6138ZM28.1632 36.7312C25.7188 37.3801 23.4934 37.9929 21.0855 38.6778C22.6178 42.7872 24.0771 46.7884 25.7188 51.1862C26.3025 50.1769 26.7768 49.5641 27.0687 48.8431C27.6159 47.4373 28.455 47.257 29.7684 47.8698C30.5345 48.2303 31.4101 48.4105 32.614 48.771C31.0088 44.4454 29.586 40.5883 28.1632 36.7312ZM14.3727 46.3198C15.4307 43.436 16.3428 41.0209 17.2184 38.5697C14.847 37.8487 12.658 37.1638 10.2502 36.4429C9.37457 38.822 8.49899 41.2371 7.55044 43.9407C9.30161 43.3639 10.6879 42.9314 12.1108 42.4628C12.8039 43.6884 13.4971 44.8419 14.3727 46.3198Z" fill="white"/>
<path d="M26.6688 11.319C27.5444 11.8597 28.2376 12.2922 29.0767 12.833C25.5744 18.3482 22.1085 23.7553 18.5697 29.3426C15.6875 26.3146 12.9513 23.4308 9.99625 20.3308C10.7624 19.754 11.4191 19.2494 12.2582 18.6005C14.1188 20.5471 16.0159 22.5297 18.1319 24.6925C20.9775 20.1866 23.7502 15.8609 26.6688 11.319Z" fill="white"/>
</g>
<defs>
<clipPath id="clip0">
<rect width="39" height="58" fill="white"/>
</clipPath>
</defs>
</svg>
