<svg width="11" height="14" viewBox="0 0 11 14" fill="none" xmlns="http://www.w3.org/2000/svg">
<g clip-path="url(#clip0)">
<path d="M9.12152 2.67223C8.82069 1.68334 8.25877 0.888897 7.30521 0.400008C6.87951 0.177786 6.42544 0.0333412 5.93731 0.0111189C5.23916 -0.0277699 4.74536 0.0444523 4.49561 0.105563C3.508 0.355563 2.74742 0.900008 2.24226 1.77779C1.91873 2.33334 1.74845 2.9389 1.69169 3.57223C1.65764 3.9389 1.65764 4.30556 1.64061 4.67223C1.63493 4.77223 1.68034 4.80556 1.78251 4.80556C2.23091 4.80001 2.67363 4.80001 3.12203 4.80556C3.23555 4.80556 3.26393 4.76112 3.26393 4.66112C3.26393 4.36667 3.26393 4.06667 3.28664 3.77223C3.33204 3.15556 3.51367 2.57779 3.95072 2.11667C4.18344 1.87223 4.47859 1.71112 4.81347 1.63334C5.2789 1.53334 5.74432 1.52779 6.20975 1.64445C6.74897 1.77223 7.12926 2.10556 7.379 2.58334C7.59468 3.00001 7.69685 3.44445 7.71388 3.91112C7.72523 4.17223 7.73091 4.42779 7.73091 4.6889C7.73091 4.77779 7.76496 4.81667 7.85578 4.81667C8.30418 4.81112 8.75826 4.81112 9.20666 4.81667C9.29747 4.81667 9.33153 4.77779 9.33153 4.6889C9.35423 4.00001 9.32585 3.32779 9.12152 2.67223Z" fill="#A8A8A8"/>
<path d="M5.48868 5.4C6.79983 5.4 8.1053 5.39444 9.41644 5.4C10.177 5.40556 10.8922 6.01111 10.966 6.75C11.0114 7.18889 10.9944 7.62778 10.9944 8.07222C10.9944 9.51111 10.9944 10.95 10.9944 12.3889C10.9944 13.2611 10.2508 13.9944 9.35968 13.9944C6.77713 13.9944 4.19457 14 1.61768 13.9944C0.652771 13.9944 -0.00563954 13.1833 3.64123e-05 12.3889C0.0113883 10.9556 3.64123e-05 9.52778 3.64123e-05 8.09444C3.64123e-05 7.70555 3.64123e-05 7.32222 3.64123e-05 6.93333C0.00571237 6.20556 0.607363 5.51667 1.35091 5.42222C1.64606 5.38333 1.94689 5.39444 2.24771 5.39444C3.33182 5.39444 4.41025 5.39444 5.48868 5.4ZM5.49436 8.04444C5.38084 8.06111 5.26732 8.07222 5.15948 8.1C4.69405 8.22222 4.31944 8.68889 4.3762 9.25C4.41025 9.59444 4.5635 9.85556 4.84163 10.0611C4.88703 10.0944 4.92109 10.1667 4.92109 10.2222C4.92676 10.5944 4.92109 10.9667 4.92677 11.3389C4.93244 11.7056 5.26165 11.9556 5.63058 11.8722C5.90871 11.8056 6.06763 11.6111 6.07331 11.3167C6.07898 10.9556 6.07898 10.5944 6.07331 10.2389C6.07331 10.1556 6.10169 10.1 6.1698 10.0444C6.28332 9.93889 6.40819 9.83333 6.48198 9.7C6.89065 8.95556 6.39116 8.04444 5.49436 8.04444Z" fill="#A8A8A8"/>
</g>
<defs>
<clipPath id="clip0">
<rect width="11" height="14" fill="white"/>
</clipPath>
</defs>
</svg>
