<svg width="151" height="41" viewBox="0 0 151 41" fill="none" xmlns="http://www.w3.org/2000/svg">
<g clip-path="url(#clip0)">
<path d="M126.125 15.4655C127.27 15.8968 127.798 17.5358 127.886 20.4687V30.2163L122.954 22.884L120.488 19.1748C119.079 17.0182 118.462 15.8105 118.814 15.4655H114.851C115.82 16.1556 116.26 18.1396 116.26 21.4176V26.3345C116.26 32.2866 115.908 35.9096 115.291 37.2035H118.638C118.286 36.8585 118.11 35.7371 118.11 33.753V30.3025V23.4016V21.4176L129.472 37.4623C129.648 37.7211 129.736 37.6348 129.736 37.2898V34.6156V32.0278V26.7658V21.5038C129.648 18.0533 129.824 15.9831 130.176 15.4655H126.125ZM106.396 29.6987C106.484 33.6668 106.66 36.1684 107.012 37.2898H102.785C103.489 35.9958 103.93 32.3728 103.93 26.4208V21.4176C103.93 18.1396 103.401 16.1556 102.344 15.4655H107.012C106.572 16.1556 106.396 18.1396 106.396 21.4176V29.6987ZM88.252 28.146H82.7913L85.6097 19.5198L88.252 28.146ZM87.4594 15.4655H83.6721C84.5528 15.7243 84.729 17.1907 84.0244 19.7786L82.0867 25.2994C79.1802 33.1492 77.1545 37.1172 76.0095 37.2035H79.6206C79.5325 36.6859 80.4133 34.3569 82.1748 30.2163H88.8686L91.4228 38.1524C92.1274 40.3089 93.977 41.2578 97.0596 40.9128C95.3862 39.8776 94.1531 37.9799 93.4485 35.1332L91.2466 28.5773L89.1328 22.2802L88.0759 19.1748C87.3713 17.277 87.1951 15.9831 87.4594 15.4655ZM66.8496 36.0821C66.0569 35.9958 65.4404 35.8233 65.1761 35.5645V19.7786C65.1761 16.5006 65.4404 14.7754 65.7927 14.5166H61.1247C61.9173 15.0342 62.3577 16.5869 62.5339 19.261V32.6316C62.4458 34.8744 62.1816 36.4271 61.6531 37.2035H70.6368C71.0772 37.1172 71.4295 36.9447 71.6938 36.6859C71.958 36.4271 72.0461 35.6508 72.0461 34.3569H71.6057C71.6057 35.3057 71.0772 35.8233 69.9322 35.9096C68.6111 36.0821 67.6423 36.0821 66.8496 36.0821ZM50.9959 36.0821C50.2033 35.9958 49.5867 35.8233 49.3225 35.5645V19.7786C49.3225 16.5006 49.5867 14.7754 49.939 14.5166H45.271C46.0637 15.0342 46.5041 16.5869 46.6802 19.261V32.6316C46.5921 34.8744 46.3279 36.4271 45.7995 37.2035H54.607C55.0474 37.1172 55.3997 36.9447 55.664 36.6859C55.9282 36.4271 56.0163 35.6508 56.0163 34.3569H55.5759C55.5759 35.3057 55.0474 35.8233 53.9024 35.9096C52.7575 36.0821 51.7886 36.0821 50.9959 36.0821ZM36.8157 29.6987C36.9038 33.6668 37.0799 36.1684 37.4322 37.2898H33.2046C33.9092 35.9958 34.3496 32.3728 34.3496 26.4208V21.4176C34.3496 18.1396 33.8211 16.1556 32.7642 15.4655H37.4322C36.9919 16.1556 36.8157 18.1396 36.8157 21.4176V29.6987ZM13.6518 37.2035C14.2683 37.031 14.0921 36.1684 13.1233 34.6156L10.9214 30.13V30.0438L9.95257 28.146L6.42954 21.1588C5.19648 18.0533 3.08266 15.638 0 13.999C2.9065 13.8265 5.54878 15.3792 7.92683 18.8297L11.1856 25.4719C11.1856 25.4719 11.1856 25.3856 11.2737 25.3856L12.3306 27.6284L16.1179 34.7019L18.3198 28.5773L21.2263 20.6412C22.2832 17.622 22.1951 15.8968 21.1382 15.4655H25.2778C24.7493 15.8105 23.6924 18.2259 22.1951 22.7115L19.9051 29.0086L19.2886 30.7339L17.7913 34.7882C17.439 35.9096 17.3509 36.6859 17.5271 37.031H13.6518V37.2035Z" fill="white"/>
</g>
<path d="M149.765 10.754C149.765 11.786 149.591 12.704 149.243 13.508C148.907 14.312 148.451 14.996 147.875 15.56C147.299 16.112 146.633 16.538 145.877 16.838C145.121 17.126 144.329 17.27 143.501 17.27C142.673 17.27 141.881 17.126 141.125 16.838C140.369 16.538 139.703 16.112 139.127 15.56C138.551 14.996 138.089 14.312 137.741 13.508C137.405 12.704 137.237 11.786 137.237 10.754C137.237 9.734 137.405 8.822 137.741 8.018C138.089 7.202 138.551 6.518 139.127 5.966C139.703 5.402 140.369 4.976 141.125 4.688C141.881 4.388 142.673 4.238 143.501 4.238C144.329 4.238 145.121 4.388 145.877 4.688C146.633 4.976 147.299 5.402 147.875 5.966C148.451 6.518 148.907 7.202 149.243 8.018C149.591 8.822 149.765 9.734 149.765 10.754ZM147.929 10.754C147.929 10.034 147.821 9.38 147.605 8.792C147.389 8.204 147.083 7.7 146.687 7.28C146.303 6.86 145.835 6.536 145.283 6.308C144.743 6.08 144.149 5.966 143.501 5.966C142.853 5.966 142.253 6.08 141.701 6.308C141.161 6.536 140.693 6.86 140.297 7.28C139.913 7.7 139.613 8.204 139.397 8.792C139.181 9.38 139.073 10.034 139.073 10.754C139.073 11.474 139.181 12.128 139.397 12.716C139.613 13.304 139.913 13.808 140.297 14.228C140.693 14.648 141.161 14.972 141.701 15.2C142.253 15.428 142.853 15.542 143.501 15.542C144.149 15.542 144.743 15.428 145.283 15.2C145.835 14.972 146.303 14.648 146.687 14.228C147.083 13.808 147.389 13.304 147.605 12.716C147.821 12.128 147.929 11.474 147.929 10.754ZM144.599 13.814C144.395 13.358 144.221 12.962 144.077 12.626C143.933 12.278 143.771 11.966 143.591 11.69H142.871V13.814H141.125V7.658C141.533 7.562 141.911 7.496 142.259 7.46C142.619 7.412 142.931 7.388 143.195 7.388C145.127 7.388 146.093 8.114 146.093 9.566C146.093 10.31 145.769 10.856 145.121 11.204C145.253 11.408 145.367 11.606 145.463 11.798C145.571 11.978 145.673 12.17 145.769 12.374C145.877 12.566 145.979 12.782 146.075 13.022C146.183 13.25 146.303 13.514 146.435 13.814H144.599ZM142.871 10.286H143.195C143.579 10.286 143.867 10.238 144.059 10.142C144.251 10.034 144.347 9.836 144.347 9.548C144.347 9.308 144.263 9.14 144.095 9.044C143.927 8.948 143.681 8.9 143.357 8.9C143.273 8.9 143.183 8.906 143.087 8.918C143.003 8.918 142.931 8.924 142.871 8.936V10.286Z" fill="white"/>
<defs>
<clipPath id="clip0">
<rect width="130" height="27" fill="white" transform="translate(0 14)"/>
</clipPath>
</defs>
</svg>
