<svg width="22" height="20" viewBox="0 0 22 20" fill="none" xmlns="http://www.w3.org/2000/svg">
<path fill-rule="evenodd" clip-rule="evenodd" d="M12.5109 17.7393C17.4094 17.7393 21.3805 13.7682 21.3805 8.86964C21.3805 3.97107 17.4094 0 12.5109 0C7.61231 0 3.64124 3.97107 3.64124 8.86964C3.64124 13.7682 7.61231 17.7393 12.5109 17.7393ZM12.5109 15.8386C16.3597 15.8386 19.4799 12.7185 19.4799 8.86964C19.4799 5.02077 16.3597 1.90064 12.5109 1.90064C8.662 1.90064 5.54187 5.02077 5.54187 8.86964C5.54187 12.7185 8.662 15.8386 12.5109 15.8386Z" fill="white"/>
<rect y="18.0981" width="8.01191" height="2.68968" rx="1.34484" transform="rotate(-45 0 18.0981)" fill="white"/>
</svg>
