<svg width="13" height="13" viewBox="0 0 13 13" fill="none" xmlns="http://www.w3.org/2000/svg">
<path d="M13 6.5C13 7.52947 12.8194 8.44521 12.4583 9.24724C12.1097 10.0493 11.6365 10.7316 11.0388 11.2942C10.4411 11.8448 9.75 12.2698 8.96552 12.5691C8.18103 12.8564 7.35919 13 6.5 13C5.6408 13 4.81897 12.8564 4.03448 12.5691C3.25 12.2698 2.55891 11.8448 1.96121 11.2942C1.36351 10.7316 0.8841 10.0493 0.522988 9.24724C0.174329 8.44521 0 7.52947 0 6.5C0 5.48251 0.174329 4.57274 0.522988 3.77072C0.8841 2.95672 1.36351 2.2744 1.96121 1.72376C2.55891 1.16114 3.25 0.736189 4.03448 0.448896C4.81897 0.149632 5.6408 0 6.5 0C7.35919 0 8.18103 0.149632 8.96552 0.448896C9.75 0.736189 10.4411 1.16114 11.0388 1.72376C11.6365 2.2744 12.1097 2.95672 12.4583 3.77072C12.8194 4.57274 13 5.48251 13 6.5ZM11.0948 6.5C11.0948 5.78177 10.9828 5.12937 10.7586 4.54282C10.5345 3.95626 10.217 3.4535 9.80603 3.03453C9.40757 2.61556 8.92193 2.29236 8.34914 2.06492C7.78879 1.83748 7.17241 1.72376 6.5 1.72376C5.82759 1.72376 5.20498 1.83748 4.63218 2.06492C4.07184 2.29236 3.58621 2.61556 3.17529 3.03453C2.77682 3.4535 2.46552 3.95626 2.24138 4.54282C2.01724 5.12937 1.90517 5.78177 1.90517 6.5C1.90517 7.21823 2.01724 7.87063 2.24138 8.45718C2.46552 9.04374 2.77682 9.5465 3.17529 9.96547C3.58621 10.3844 4.07184 10.7076 4.63218 10.9351C5.20498 11.1625 5.82759 11.2762 6.5 11.2762C7.17241 11.2762 7.78879 11.1625 8.34914 10.9351C8.92193 10.7076 9.40757 10.3844 9.80603 9.96547C10.217 9.5465 10.5345 9.04374 10.7586 8.45718C10.9828 7.87063 11.0948 7.21823 11.0948 6.5ZM7.63937 9.55249C7.42768 9.09761 7.24713 8.70258 7.0977 8.3674C6.94828 8.02026 6.78017 7.70902 6.59339 7.4337H5.84626V9.55249H4.03448V3.4116C4.45785 3.31584 4.8501 3.25 5.21121 3.21409C5.58477 3.16621 5.90852 3.14227 6.18247 3.14227C8.18726 3.14227 9.18966 3.86648 9.18966 5.31492C9.18966 6.05709 8.85345 6.60175 8.18103 6.9489C8.31801 7.15239 8.4363 7.34991 8.53592 7.54144C8.64799 7.721 8.75383 7.91252 8.85345 8.11602C8.96552 8.30755 9.07136 8.52302 9.17098 8.76243C9.28304 8.98987 9.40757 9.25322 9.54454 9.55249H7.63937ZM5.84626 6.03315H6.18247C6.58094 6.03315 6.87979 5.98527 7.07902 5.8895C7.27826 5.78177 7.37787 5.58425 7.37787 5.29696C7.37787 5.05755 7.29071 4.88996 7.11638 4.7942C6.94205 4.69844 6.68678 4.65055 6.35057 4.65055C6.26341 4.65055 6.17002 4.65654 6.0704 4.66851C5.98324 4.66851 5.90852 4.67449 5.84626 4.68646V6.03315Z" fill="#1D1D1D"/>
</svg>
