<svg width="8" height="8" viewBox="0 0 8 8" fill="none" xmlns="http://www.w3.org/2000/svg">
<path d="M4.18977 4.216C4.59777 4.624 4.96377 4.996 5.28777 5.332C5.62377 5.668 5.97177 6.076 6.33177 6.556L5.32377 7.294C5.15577 7.054 4.99977 6.826 4.85577 6.61C4.72377 6.382 4.59777 6.16 4.47777 5.944C4.35777 5.716 4.23777 5.488 4.11777 5.26C4.00977 5.02 3.88977 4.774 3.75777 4.522C3.62577 4.774 3.49977 5.02 3.37977 5.26C3.27177 5.488 3.15777 5.716 3.03777 5.944C2.91777 6.16 2.78577 6.382 2.64177 6.61C2.50977 6.826 2.35977 7.054 2.19177 7.294L1.18377 6.556C1.36377 6.316 1.53777 6.1 1.70577 5.908C1.87377 5.704 2.04177 5.512 2.20977 5.332C2.37777 5.152 2.55177 4.972 2.73177 4.792C2.92377 4.612 3.12177 4.42 3.32577 4.216C2.76177 4.132 2.23977 4.048 1.75977 3.964C1.29177 3.88 0.775766 3.748 0.211766 3.568L0.589766 2.398C0.877766 2.494 1.14177 2.59 1.38177 2.686C1.62177 2.782 1.85577 2.884 2.08377 2.992C2.31177 3.1 2.53977 3.214 2.76777 3.334C2.99577 3.442 3.23577 3.556 3.48777 3.676C3.43977 3.388 3.39177 3.118 3.34377 2.866C3.30777 2.614 3.27177 2.368 3.23577 2.128C3.21177 1.876 3.18777 1.624 3.16377 1.372C3.15177 1.108 3.14577 0.825999 3.14577 0.526H4.36977C4.36977 0.825999 4.35777 1.108 4.33377 1.372C4.32177 1.624 4.29777 1.876 4.26177 2.128C4.23777 2.368 4.20177 2.614 4.15377 2.866C4.11777 3.118 4.07577 3.388 4.02777 3.676C4.27977 3.556 4.51977 3.442 4.74777 3.334C4.97577 3.214 5.20377 3.1 5.43177 2.992C5.65977 2.884 5.89377 2.782 6.13377 2.686C6.37377 2.59 6.63777 2.494 6.92577 2.398L7.30377 3.568C6.73977 3.748 6.21777 3.88 5.73777 3.964C5.26977 4.048 4.75377 4.132 4.18977 4.216Z" fill="#A8A8A8"/>
</svg>
