<svg width="69" height="64" viewBox="0 0 69 64" fill="none" xmlns="http://www.w3.org/2000/svg">
<path fill-rule="evenodd" clip-rule="evenodd" d="M35.882 2.91149L35.8816 2.91059L35.8798 2.90722L35.8795 2.90661L35.8782 2.90394C35.3944 1.95174 34.9038 0.986277 34.4107 0C34.2517 0.269044 34.1047 0.51009 33.9684 0.733604C33.688 1.19351 33.4528 1.57919 33.2515 1.9818C32.9233 2.63823 32.5931 3.29266 32.2632 3.94648C31.1649 6.1232 30.07 8.29313 29.0636 10.5073C28.3905 12.003 27.3809 12.6387 25.8104 12.8256C23.5621 13.0729 21.3273 13.3878 19.0166 13.7134L19.0165 13.7135L19.0164 13.7135L19.0163 13.7135C17.4841 13.9294 15.9186 14.15 14.2935 14.3587C14.9209 14.9977 15.5049 15.6366 16.0725 16.2576C17.3319 17.6354 18.5105 18.925 19.9024 19.9302C23.5669 22.6224 24.726 25.726 23.2303 30.1009C22.6786 31.706 22.4633 33.4287 22.2346 35.2579C22.1224 36.1561 22.0069 37.08 21.8468 38.0281C22.8852 37.4842 23.9032 36.9893 24.8954 36.507L24.8954 36.507C26.9042 35.5304 28.8072 34.6053 30.5593 33.4289C33.2515 31.634 35.4577 31.7462 38.1125 33.4663C40.0043 34.6824 42.0329 35.6837 44.1981 36.7525C45.0287 37.1625 45.8794 37.5824 46.7502 38.0281C46.514 36.6461 46.2964 35.3014 46.0833 33.9845L46.0833 33.9844L46.0833 33.9843L46.0832 33.9841L46.0832 33.9838C45.6218 31.1324 45.1816 28.4117 44.6188 25.726C44.3571 24.5295 44.6936 23.8938 45.4789 23.1459C47.9841 20.7529 50.4893 18.3224 52.9946 15.892L52.9948 15.8918C53.2507 15.6591 53.4777 15.383 53.7478 15.0545C53.9117 14.855 54.0916 14.6362 54.3035 14.3961C50.1529 13.7978 46.3763 13.2743 42.637 12.7882C41.2535 12.6013 40.3187 12.1526 39.683 10.7316C38.5279 8.11879 37.2311 5.56663 35.882 2.91149ZM57.0921 54.3527C57.9466 51.6349 58.8036 48.9093 59.6882 46.1423C59.2823 46.0799 58.883 46.0174 58.501 45.9577C57.968 45.8744 57.4689 45.7964 57.0333 45.731L56.8769 45.7076C56.1763 45.6029 55.4456 45.4937 54.715 45.3197C54.2476 45.2075 53.7895 45.086 53.3314 44.9645C52.8734 44.8429 52.4153 44.7214 51.9479 44.6092C51.2749 44.4597 50.6019 44.3475 49.9289 44.2353L49.9287 44.2353C49.6284 44.1939 49.331 44.1496 49.0357 44.1056C48.2645 43.9908 47.5074 43.8781 46.7504 43.824C45.666 43.7492 44.5816 43.7866 43.4972 43.9362C42.4502 44.0857 41.4406 44.3101 40.4684 44.6466C38.7858 45.2449 37.1779 46.0675 35.6448 46.9276C34.2987 47.6754 32.9151 48.3859 31.4194 48.7224C31.3099 48.7473 31.1997 48.7728 31.089 48.7985L31.0889 48.7985L31.0889 48.7986L31.0888 48.7986C30.3677 48.9658 29.6222 49.1387 28.8768 49.1711C27.3784 49.2211 25.8633 49.2376 24.3427 49.2543H24.3427H24.3426H24.3426H24.3425C23.5864 49.2626 22.8288 49.2709 22.0713 49.2833L14.1067 49.3955C12.9849 49.4329 11.9006 49.5824 10.891 50.0311C9.65701 50.592 8.87177 51.4894 8.94656 52.9478C8.94656 53.3224 9.0508 53.723 9.15051 54.1062L9.15053 54.1063L9.15055 54.1064C9.17026 54.1821 9.18979 54.2572 9.2083 54.3313C9.32048 54.7426 9.61962 54.9669 10.0309 55.0043L10.1348 55.0124C10.5813 55.0469 10.9979 55.0791 11.4145 55.0791C12.493 55.1118 13.5716 55.0945 14.6533 55.0771H14.6534H14.6534H14.6534H14.6535H14.6535H14.6535H14.6536H14.6536C16.0469 55.0548 17.4453 55.0323 18.8556 55.1165C20.3293 55.1806 21.8152 55.1959 23.2994 55.2111H23.2996C24.4138 55.2226 25.5269 55.234 26.6332 55.2661C26.8996 55.2838 27.1744 55.31 27.4537 55.3367C27.7624 55.3661 28.0765 55.396 28.3906 55.4156C27.6428 55.64 26.8576 55.7522 26.0723 55.7522C24.2029 55.7273 22.3335 55.7356 20.4641 55.7439H20.4634C19.5286 55.748 18.5938 55.7522 17.659 55.7522C17.5698 55.7522 17.4891 55.7607 17.4047 55.7696C17.3123 55.7794 17.2154 55.7896 17.0981 55.7896C17.1259 55.8266 17.1491 55.8591 17.1694 55.8876L17.1697 55.888L17.1698 55.8881L17.17 55.8883C17.2313 55.9742 17.2664 56.0233 17.3225 56.0513C17.7273 56.2807 18.1272 56.5198 18.5257 56.7581L18.5258 56.7582L18.5261 56.7583L18.5263 56.7585L18.5264 56.7585L18.5265 56.7586L18.5265 56.7586L18.5266 56.7586C19.2323 57.1806 19.9337 57.6 20.6504 57.9583C21.5787 58.4225 22.5468 58.8268 23.5111 59.2295L23.5113 59.2296L23.5115 59.2297L23.5117 59.2298L23.5119 59.2299C23.8681 59.3786 24.2237 59.5271 24.5766 59.6784C24.7625 59.7549 24.9491 59.8322 25.1365 59.9099L25.1375 59.9103C26.232 60.3637 27.3538 60.8285 28.5028 61.2115C29.849 61.6602 31.2325 62.1089 32.616 62.4828C33.1021 62.595 33.663 62.6698 34.2239 62.6698C35.2764 62.6698 36.2744 62.3706 37.2645 62.0737C37.4352 62.0225 37.6057 61.9714 37.7762 61.9219C37.9574 61.864 38.14 61.806 38.3235 61.7477L38.3246 61.7473L38.3248 61.7473L38.3255 61.7471C39.0879 61.505 39.8651 61.2582 40.618 60.9871L43.5346 59.9775C44.1703 59.7532 44.8433 59.5288 45.479 59.3419C46.2643 59.0801 47.0495 58.8558 47.8721 58.6314C48.6948 58.407 49.5548 58.1827 50.4148 58.1453C51.6488 58.1079 52.7332 58.4818 53.8549 58.9305C54.3784 59.1549 54.8645 59.3792 55.4254 59.641C55.9842 57.8765 56.5372 56.1177 57.0912 54.3556L57.0914 54.3549L57.0917 54.3542L57.0919 54.3535L57.0921 54.3527ZM68.7744 48.1241C68.7404 48.2373 68.7031 48.3677 68.6622 48.5099C68.5682 48.8376 68.4561 49.2287 68.3257 49.6198L67.6526 51.7512C67.4844 52.3121 67.3068 52.873 67.1291 53.4339C66.9515 53.9947 66.7739 54.5556 66.6057 55.1165C66.4935 55.4718 66.3906 55.8177 66.2878 56.1636C66.185 56.5095 66.0821 56.8553 65.97 57.2105L64.9604 60.4636C64.8284 60.8597 64.7093 61.2557 64.5879 61.6594L64.5875 61.6607C64.5028 61.9426 64.4169 62.2283 64.3247 62.5202C64.306 62.5576 64.2967 62.5949 64.2873 62.6323L64.2873 62.6324C64.278 62.6698 64.2686 62.7072 64.2499 62.7446C63.9508 63.642 63.3899 63.9785 62.4925 63.7542C61.9103 63.5936 61.3388 63.4114 60.7724 63.2308C60.2838 63.0751 59.799 62.9205 59.3141 62.782C58.6411 62.5576 57.9682 62.3707 57.2952 62.1838L57.2949 62.1837C56.5845 61.9593 56.2105 61.2863 56.4349 60.5758C56.6593 59.8653 56.8743 59.1548 57.0893 58.4443C57.3043 57.7339 57.5193 57.0235 57.7436 56.3131C57.9703 55.6006 58.19 54.8882 58.4087 54.1787L58.409 54.1779C58.6953 53.2493 58.98 52.326 59.2767 51.4147C59.4824 50.7603 59.6787 50.0966 59.875 49.4329C60.0713 48.7691 60.2676 48.1054 60.4733 47.4511C60.6229 46.9276 60.8098 46.3667 60.9968 45.8432C61.109 45.4319 61.5577 45.1327 62.0064 45.0953C62.5392 45.0673 63.009 45.2285 63.4787 45.3898C63.6353 45.4435 63.7919 45.4973 63.9508 45.544C64.4742 45.6749 64.9793 45.8424 65.4788 46.008C65.6931 46.0791 65.9063 46.1498 66.1195 46.2171C66.7552 46.4041 67.3535 46.591 67.9892 46.8154C68.5501 46.8902 68.8118 47.3389 68.7744 48.1241ZM15.7417 48.5935C15.8161 48.5836 15.8962 48.5728 15.9764 48.5728V48.4233C15.939 48.3859 15.9016 48.3485 15.8268 48.3111C14.892 47.7128 13.9198 47.1145 12.985 46.5536C11.9243 45.885 10.8494 45.2305 9.76902 44.5727L9.76868 44.5725C9.0972 44.1636 8.42361 43.7535 7.75003 43.3379C7.15175 42.9827 6.56282 42.6274 5.97389 42.2722C5.38496 41.917 4.79602 41.5618 4.19774 41.2065C3.00118 40.4961 2.06637 40.5709 1.01938 41.3935C-0.438927 42.5153 -0.326749 44.8336 1.31852 45.8432C2.49638 46.5723 3.67424 47.2921 4.8521 48.012C6.02997 48.7318 7.20783 49.4516 8.3857 50.1807C8.61005 50.2929 8.75962 50.2555 8.94658 50.1059L9.02139 50.0497C9.30151 49.8389 9.61311 49.6044 9.95618 49.4329C11.1153 48.872 12.3119 48.6102 13.5833 48.6102C14.0306 48.6351 14.4614 48.6269 14.8976 48.6186H14.8976H14.8977C15.1178 48.6144 15.3393 48.6102 15.5651 48.6102C15.6171 48.6102 15.6772 48.6022 15.7416 48.5936L15.7417 48.5935ZM22.3703 48.498C22.2955 48.498 22.2114 48.5074 22.1273 48.5167C22.0431 48.5261 21.959 48.5354 21.8842 48.5354C21.6318 48.5354 21.3794 48.5331 21.127 48.5308C20.3698 48.5238 19.6126 48.5167 18.8554 48.5728C18.3275 48.6058 17.9452 48.3768 17.5543 48.1426L17.554 48.1425C17.502 48.1113 17.4498 48.0801 17.3971 48.0493C16.554 47.5349 15.7109 47.015 14.8657 46.4938C13.4993 45.6512 12.1274 44.8052 10.7413 43.9736C9.88497 43.4384 9.02867 42.9223 8.15866 42.398C7.81296 42.1897 7.46509 41.9801 7.1142 41.7674C6.77767 41.5804 6.77767 41.4683 7.07681 41.1691C7.86205 40.3839 9.096 40.2343 10.0308 40.7952C10.7972 41.2438 11.5543 41.7112 12.3114 42.1785L12.3118 42.1787L12.3121 42.1789C13.0692 42.6463 13.8263 43.1136 14.5927 43.5622C15.4528 44.0858 16.3222 44.6186 17.1916 45.1515C18.0609 45.6843 18.9303 46.2171 19.7902 46.7406C20.5755 47.2267 21.3981 47.7128 22.2208 48.1989C22.2582 48.2176 22.2955 48.2456 22.3329 48.2737C22.3703 48.3017 22.4077 48.3298 22.4451 48.3485C22.4451 48.3716 22.4308 48.3947 22.4111 48.4266C22.3989 48.4464 22.3846 48.4695 22.3703 48.498ZM26.6332 48.442C26.708 48.4326 26.7828 48.4233 26.8576 48.4233C26.8576 48.3859 26.8576 48.3485 26.895 48.3859C26.8685 48.3594 26.8467 48.3329 26.8262 48.3081C26.789 48.2628 26.7563 48.2231 26.708 48.1989L22.1087 45.3945C21.4544 45.0019 20.8 44.5999 20.1456 44.1979C19.4913 43.796 18.8369 43.394 18.1825 43.0014L18.1825 43.0013C17.472 42.5526 16.7616 42.1039 16.0138 41.73C15.2659 41.3187 14.2563 41.5057 13.7702 42.104C13.845 42.1787 13.9572 42.2535 14.0693 42.3283L14.0694 42.3284C14.5929 42.6275 15.1164 42.9266 15.6024 43.2257C17.0046 44.0857 18.3975 44.9458 19.7903 45.8058C21.1832 46.6658 22.5761 47.5259 23.9784 48.3859C24.1279 48.4981 24.3897 48.5355 24.5766 48.5355C25.1749 48.5355 25.8106 48.4981 26.4089 48.4607C26.4837 48.4607 26.5584 48.4513 26.6332 48.442Z" fill="#CA1A1A"/>
</svg>
