<svg width="17" height="15" viewBox="0 0 17 15" fill="none" xmlns="http://www.w3.org/2000/svg">
<g clip-path="url(#clip0)">
<path d="M2.79409 13.7865C2.82808 13.6092 2.87717 13.3414 2.92626 13.0737C3.10373 12.114 3.28876 11.1578 3.46246 10.1982C3.52666 9.83656 3.4096 9.5132 3.13017 9.25937C2.49956 8.68566 1.8614 8.1189 1.22324 7.54866C0.94003 7.29484 0.653047 7.04101 0.373616 6.78023C0.0262146 6.45339 -0.0908444 6.06744 0.0715278 5.6328C0.230124 5.20165 0.573749 4.95826 1.05331 4.88871C1.75567 4.78788 2.45802 4.69748 3.16038 4.6036C3.70036 4.53058 4.24412 4.46451 4.7841 4.38802C5.2259 4.32543 5.54687 4.11333 5.747 3.73781C6.2681 2.75728 6.79676 1.77675 7.32541 0.792745C7.35184 0.747543 7.3745 0.698865 7.40093 0.653663C7.6275 0.236416 7.99001 0.00345383 8.496 -2.32212e-05C9.00955 -0.00350028 9.37961 0.232939 9.60618 0.65714C9.82141 1.06396 10.0367 1.46729 10.2557 1.87411C10.5842 2.48607 10.9203 3.09803 11.2412 3.71347C11.4565 4.12724 11.8076 4.33934 12.2985 4.40193C13.1142 4.50276 13.9298 4.6175 14.7454 4.72529C15.1495 4.78093 15.5535 4.82961 15.9576 4.88871C16.5844 4.97564 17.0262 5.45547 17.0036 6.02571C16.9922 6.32126 16.8638 6.57509 16.6335 6.78371C15.9991 7.35395 15.3647 7.92766 14.7303 8.4979C14.466 8.73781 14.1941 8.97078 13.9298 9.21069C13.6088 9.50277 13.4691 9.85395 13.5598 10.2712C13.5975 10.4485 13.6239 10.6259 13.6579 10.8032C13.8392 11.7663 14.0242 12.7295 14.1979 13.6961C14.281 14.1481 14.1111 14.5236 13.707 14.7914C13.3143 15.0521 12.8838 15.0695 12.4571 14.8679C11.5962 14.461 10.739 14.0403 9.88183 13.6231C9.62128 13.4979 9.36073 13.3692 9.0964 13.2406C8.69236 13.0459 8.29209 13.0528 7.88805 13.251C6.79298 13.783 5.69414 14.3115 4.59907 14.8435C4.31964 14.9791 4.03265 15.0278 3.72301 14.9617C3.17548 14.8505 2.79032 14.3985 2.79409 13.7865Z" fill="#E4E4E4"/>
</g>
<defs>
<clipPath id="clip0">
<rect width="17" height="15" fill="#E4E4E4"/>
</clipPath>
</defs>
</svg>
