<svg width="23" height="21" viewBox="0 0 23 21" fill="none" xmlns="http://www.w3.org/2000/svg">
<path d="M0 18.0985C2.34452 18.2896 4.48129 17.7481 6.38064 16.251C5.54968 15.8051 4.65935 15.4547 3.91742 14.9132C3.20516 14.3717 2.67097 13.5754 2.40387 12.4924C2.93806 12.4924 3.35355 12.4924 3.73935 12.4924C3.76903 12.4287 3.79871 12.3968 3.82839 12.3331C2.04774 11.3138 0.741935 9.94414 0.80129 7.4596C1.39484 7.61887 1.86968 7.74628 2.4929 7.90555C0.712258 5.89881 0.267097 3.76466 1.33548 1.15271C2.76 2.61795 4.06581 3.98763 5.72774 4.84766C7.38968 5.70769 9.11097 6.34475 11.04 6.3766C11.04 5.96251 11.04 5.64398 11.04 5.32545C11.0697 3.22316 11.9897 1.69421 13.711 0.770477C15.4323 -0.185113 17.1535 0.0697116 18.6968 1.28013C19.2606 1.72607 19.7355 1.78977 20.329 1.53495C20.9226 1.28012 21.5161 1.0253 22.2284 0.674918C22.1097 1.88533 21.3381 2.45869 20.5961 3.28686C21.4865 3.06389 22.1987 2.87277 22.911 2.68166C22.9406 2.71351 22.9703 2.77722 23 2.80907C22.4361 3.41427 21.9316 4.05133 21.3381 4.62469C20.9523 4.97507 20.7148 5.32545 20.6852 5.93066C20.5368 9.0204 19.7652 11.919 18.0735 14.4673C15.7587 17.9392 12.6129 19.8186 8.69548 20.3601C5.75742 20.7423 3.08645 20.0415 0.504516 18.6082C0.296774 18.5444 0.148387 18.4489 0 18.3533C0 18.2578 0 18.1941 0 18.0985Z" fill="#fff"/>
</svg>
