<svg width="32" height="32" viewBox="0 0 32 32" fill="none" xmlns="http://www.w3.org/2000/svg">
<path d="M0.875553 15.7509L0.875553 15.751C0.805867 24.0066 7.3335 31.0785 15.9768 31.125H15.977C24.3304 31.1599 31.1372 24.3095 31.1255 15.9595C31.1139 7.62033 24.3411 0.875001 15.989 0.875C7.71807 0.874999 0.94527 7.61962 0.875553 15.7509ZM26.0245 6.49484L26.0245 6.49491C31.1254 11.9406 30.5366 19.5399 27.3092 23.805C24.8794 19.3765 21.1264 16.8497 16.0469 16.8496C10.9344 16.8381 7.14754 19.3522 4.67226 23.8344C0.892279 18.5294 1.3173 10.4923 6.90082 5.60389C12.5189 0.699662 20.9904 1.11213 26.0245 6.49484ZM5.77686 24.6457L5.77688 24.6457L5.77789 24.6437C7.82043 20.6225 11.0879 18.446 15.5477 18.1605C17.5167 18.0352 19.452 18.468 21.2292 19.4261C23.4527 20.6247 25.1274 22.3584 26.2334 24.6409C26.3149 24.8153 26.3414 24.9418 26.3261 25.0513C26.3109 25.1596 26.2519 25.272 26.1178 25.4117L26.1177 25.4117C23.3539 28.2931 19.9764 29.7332 16.0005 29.8254C12.0249 29.7332 8.64791 28.2933 5.8959 25.4013C5.76422 25.2583 5.69997 25.1475 5.6816 25.0415C5.66364 24.9379 5.68597 24.817 5.77686 24.6457ZM19.6656 6.28057L19.6652 6.28013C17.5032 3.85545 13.9297 4.04622 12.0055 6.69327C10.499 8.75536 10.4872 11.7327 11.982 13.8066L11.982 13.8067C14.1905 16.8691 18.555 16.5842 20.3614 13.2627L20.3615 13.2626C20.8752 12.3158 21.1605 11.3025 21.1255 10.4438C21.125 8.73506 20.6558 7.40173 19.6656 6.28057ZM19.8155 10.7009L19.8156 10.7026C19.8264 11.2462 19.5508 12.1664 18.9742 12.9928C17.6562 14.8714 15.2662 15.1686 13.596 13.6525L13.5956 13.6522C12.6473 12.7977 12.174 11.5193 12.181 10.2351C12.1881 8.95099 12.6753 7.67514 13.6295 6.82594C15.0899 5.53127 17.1115 5.57641 18.4926 6.94753C19.3966 7.86397 19.8042 8.97096 19.8155 10.7009Z" fill="#92A6A2" stroke="#A8A8A8" stroke-width="0.25"/>
</svg>
